<svg id="Layer_1" data-name="Layer 1" xmlns="http://www.w3.org/2000/svg" xmlns:xlink="http://www.w3.org/1999/xlink" viewBox="0 0 358.9 193.5"><defs><style>.cls-1,.cls-6{fill:none;stroke-miterlimit:10;stroke-width:1.38px;}.cls-1{stroke:#e7eaf1;}.cls-2{fill:#e6ebf2;}.cls-3{fill:url(#linear-gradient);}.cls-4{fill:url(#linear-gradient-2);}.cls-5{fill:url(#linear-gradient-3);}.cls-6{stroke:#00d7d2;}</style><linearGradient id="linear-gradient" x1="40.7" y1="148.35" x2="81.43" y2="148.35" gradientTransform="matrix(1, 0, 0, -1, 0, 209)" gradientUnits="userSpaceOnUse"><stop offset="0" stop-color="#e7eaf1"/><stop offset="1" stop-color="#e7eaf1"/></linearGradient><linearGradient id="linear-gradient-2" x1="0" y1="148.4" x2="40.7" y2="148.4" xlink:href="#linear-gradient"/><linearGradient id="linear-gradient-3" x1="0" y1="185.95" x2="81.4" y2="185.95" xlink:href="#linear-gradient"/></defs><title>Blocks</title><line class="cls-1" x1="220.48" y1="139.04" x2="301.12" y2="85.58"/><polyline class="cls-1" points="247.9 120.9 181.2 75.3 108.1 120.9 55.62 87"/><path class="cls-2" d="M357.4,26.9V71.4L319.6,94.2V46.9l37.8-20m1.5-2.5L318.2,46.1V96.9l40.7-24.7V24.4Z"/><path class="cls-2" d="M278.9,26.9,316.7,47V94.3L278.9,71.4V26.9m-1.4-2.5V72.2l40.7,24.6V46.1L277.5,24.4Z"/><path class="cls-2" d="M318.2,1.7l37.7,22.6L318.2,44.4,280.5,24.3,318.2,1.7m0-1.7L277.5,24.4l40.7,21.7,40.7-21.7L318.2,0Z"/><path class="cls-2" d="M219.6,123.4V168l-37.8,22.8V143.5l37.8-20.1m1.5-2.4-40.7,21.7v50.8l40.7-24.6V121Z"/><path class="cls-2" d="M141.1,123.4l37.8,20.1v47.3L141.1,168V123.4m-1.5-2.4v47.8l40.7,24.6V142.6L139.6,121Z"/><path class="cls-2" d="M180.3,98.3,218,120.9,180.3,141l-37.7-20.1,37.7-22.6m0-1.7L139.6,121l40.7,21.7L221,121,180.3,96.6Z"/><path class="cls-3" d="M80,26.9V71.4L42.2,94.2V46.9L80,26.9m1.5-2.5L40.7,46.1V96.9L81.4,72.3V24.4Z"/><path class="cls-4" d="M1.5,26.9,39.3,47V94.3L1.5,71.4V26.9M0,24.4V72.2L40.7,96.8V46.1L0,24.4Z"/><path class="cls-5" d="M40.7,1.7,78.4,24.3,40.7,44.4,3,24.3l1.18-.71L40.7,1.7m0-1.7L0,24.4,40.7,46.1,81.4,24.4,40.7,0Z"/><path class="cls-6" d="M114.7,166.8"/></svg>