<svg xmlns="http://www.w3.org/2000/svg" xmlns:xlink="http://www.w3.org/1999/xlink" viewBox="0 0 694.75 702.48"><defs><style>.cls-1{mask:url(#mask);filter:url(#luminosity-noclip-5);}.cls-11,.cls-139,.cls-2,.cls-20,.cls-4,.cls-54,.cls-6,.cls-8{mix-blend-mode:multiply;}.cls-2{fill:url(#linear-gradient);}.cls-3{mask:url(#mask-2);filter:url(#luminosity-noclip-6);}.cls-4{fill:url(#linear-gradient-2);}.cls-5{mask:url(#mask-3);filter:url(#luminosity-noclip-7);}.cls-6{fill:url(#linear-gradient-3);}.cls-7{mask:url(#mask-4);filter:url(#luminosity-noclip-8);}.cls-8{fill:url(#linear-gradient-4);}.cls-9{isolation:isolate;}.cls-10{mask:url(#mask-5);}.cls-11,.cls-139,.cls-20,.cls-54{opacity:0.21;}.cls-11{fill:url(#linear-gradient-5);}.cls-12{fill:url(#linear-gradient-6);}.cls-13{fill:url(#linear-gradient-7);}.cls-14{fill:#b2c6dc;}.cls-15{opacity:0.37;fill:url(#linear-gradient-8);}.cls-16{fill:#cde4fe;}.cls-17{fill:#acd2fe;}.cls-18{fill:url(#linear-gradient-9);}.cls-19{mask:url(#mask-6);}.cls-20{fill:url(#linear-gradient-10);}.cls-21{fill:url(#linear-gradient-11);}.cls-22{fill:url(#linear-gradient-12);}.cls-23{fill:url(#linear-gradient-13);}.cls-24{fill:url(#linear-gradient-14);}.cls-25{fill:url(#linear-gradient-15);}.cls-26{fill:url(#linear-gradient-16);}.cls-27{fill:url(#linear-gradient-17);}.cls-28{fill:url(#linear-gradient-18);}.cls-29{fill:url(#linear-gradient-19);}.cls-30{fill:url(#linear-gradient-20);}.cls-104,.cls-105,.cls-108,.cls-31,.cls-33,.cls-43{opacity:0.66;}.cls-31{fill:url(#linear-gradient-21);}.cls-32{fill:url(#linear-gradient-22);}.cls-33{fill:url(#linear-gradient-23);}.cls-34{fill:url(#linear-gradient-24);}.cls-35{fill:url(#linear-gradient-25);}.cls-36{fill:url(#linear-gradient-26);}.cls-37{fill:url(#linear-gradient-27);}.cls-38{fill:url(#linear-gradient-28);}.cls-39{fill:url(#linear-gradient-29);}.cls-40{fill:url(#linear-gradient-30);}.cls-41{fill:url(#linear-gradient-31);}.cls-42{fill:url(#linear-gradient-32);}.cls-43{fill:url(#linear-gradient-33);}.cls-44{fill:url(#linear-gradient-34);}.cls-45{fill:url(#linear-gradient-35);}.cls-46{fill:url(#linear-gradient-36);}.cls-47{fill:url(#linear-gradient-37);}.cls-48{fill:url(#linear-gradient-38);}.cls-49{fill:url(#linear-gradient-39);}.cls-50{fill:#e6e6e6;}.cls-51{fill:#b7b6b9;}.cls-52{fill:url(#linear-gradient-40);}.cls-53{mask:url(#mask-7);}.cls-54{fill:url(#linear-gradient-41);}.cls-55{fill:url(#linear-gradient-42);}.cls-56{fill:#b8b8b8;}.cls-57{fill:url(#linear-gradient-43);}.cls-58{fill:#a7c5dd;}.cls-59{fill:#b4d4ee;}.cls-60{fill:url(#linear-gradient-44);}.cls-61{fill:url(#linear-gradient-45);}.cls-62{fill:url(#linear-gradient-46);}.cls-63{fill:url(#linear-gradient-47);}.cls-64{fill:url(#linear-gradient-48);}.cls-65{fill:url(#linear-gradient-49);}.cls-66{fill:url(#linear-gradient-50);}.cls-67{fill:url(#linear-gradient-51);}.cls-68{fill:url(#linear-gradient-52);}.cls-69{fill:url(#linear-gradient-53);}.cls-70{fill:url(#linear-gradient-54);}.cls-71{fill:url(#linear-gradient-55);}.cls-72{fill:url(#linear-gradient-56);}.cls-73{fill:url(#linear-gradient-57);}.cls-74{fill:url(#linear-gradient-58);}.cls-75{fill:url(#linear-gradient-59);}.cls-76{fill:url(#linear-gradient-60);}.cls-77{fill:url(#linear-gradient-61);}.cls-78{fill:url(#linear-gradient-62);}.cls-79{fill:url(#linear-gradient-63);}.cls-80{fill:url(#linear-gradient-64);}.cls-81{fill:url(#linear-gradient-65);}.cls-82{fill:url(#linear-gradient-66);}.cls-83{fill:url(#linear-gradient-67);}.cls-84{fill:url(#linear-gradient-68);}.cls-85{fill:url(#linear-gradient-69);}.cls-86{fill:url(#linear-gradient-70);}.cls-87{fill:url(#linear-gradient-71);}.cls-88{fill:url(#linear-gradient-72);}.cls-89{fill:url(#linear-gradient-73);}.cls-90{fill:url(#linear-gradient-74);}.cls-91{fill:url(#linear-gradient-75);}.cls-92{fill:url(#linear-gradient-76);}.cls-93{fill:url(#linear-gradient-77);}.cls-94{fill:url(#linear-gradient-78);}.cls-95{fill:url(#linear-gradient-79);}.cls-96{fill:url(#linear-gradient-80);}.cls-97{fill:url(#linear-gradient-81);}.cls-98{fill:url(#linear-gradient-82);}.cls-99{fill:url(#linear-gradient-83);}.cls-100{fill:url(#linear-gradient-84);}.cls-101{fill:url(#linear-gradient-85);}.cls-102{fill:#108ffe;}.cls-102,.cls-103{opacity:0.64;}.cls-103,.cls-104{fill:#5bc7fe;}.cls-105{fill:#fdf4fa;}.cls-106{fill:url(#linear-gradient-86);}.cls-107{fill:url(#linear-gradient-87);}.cls-108{fill:#fcf6fd;}.cls-109{fill:#aec3dc;}.cls-110{fill:url(#linear-gradient-88);}.cls-111{fill:url(#linear-gradient-89);}.cls-112{fill:url(#linear-gradient-90);}.cls-113{fill:#b3b3b3;}.cls-114{fill:url(#linear-gradient-91);}.cls-115{fill:#c5c8cc;}.cls-116{fill:url(#linear-gradient-92);}.cls-117{fill:url(#linear-gradient-93);}.cls-118{fill:url(#linear-gradient-94);}.cls-119{fill:url(#linear-gradient-95);}.cls-120{fill:url(#linear-gradient-96);}.cls-121{fill:url(#linear-gradient-97);}.cls-122{fill:url(#linear-gradient-98);}.cls-123{fill:url(#linear-gradient-99);}.cls-124{fill:url(#linear-gradient-100);}.cls-125{fill:url(#linear-gradient-101);}.cls-126{fill:url(#linear-gradient-102);}.cls-127{fill:url(#linear-gradient-103);}.cls-128{fill:url(#linear-gradient-104);}.cls-129{fill:url(#linear-gradient-105);}.cls-130{fill:url(#linear-gradient-106);}.cls-131{fill:url(#linear-gradient-107);}.cls-132{fill:url(#linear-gradient-108);}.cls-133{fill:url(#linear-gradient-109);}.cls-134{fill:#fff;}.cls-135{fill:#d9f4f9;}.cls-136{fill:#1aa1d6;}.cls-137{fill:#a3d9ef;}.cls-138{mask:url(#mask-8);}.cls-139{fill:url(#linear-gradient-110);}.cls-140{fill:url(#linear-gradient-111);}.cls-141{fill:#abb4bb;}.cls-142{fill:url(#linear-gradient-112);}.cls-143{fill:#bac4cc;}.cls-144{fill:url(#linear-gradient-113);}.cls-145{fill:url(#linear-gradient-114);}.cls-146{fill:url(#linear-gradient-115);}.cls-147{fill:url(#linear-gradient-116);}.cls-148{fill:url(#linear-gradient-117);}.cls-149{fill:url(#linear-gradient-118);}.cls-150{fill:url(#linear-gradient-119);}.cls-151{fill:url(#linear-gradient-120);}.cls-152{fill:url(#linear-gradient-121);}.cls-153{fill:url(#linear-gradient-122);}.cls-154{fill:url(#linear-gradient-123);}.cls-155{fill:url(#linear-gradient-124);}.cls-156{fill:url(#linear-gradient-125);}.cls-157{fill:url(#linear-gradient-126);}.cls-158{fill:url(#linear-gradient-127);}.cls-159{fill:url(#linear-gradient-128);}.cls-160{fill:url(#linear-gradient-129);}.cls-161{fill:url(#linear-gradient-130);}.cls-162{fill:url(#linear-gradient-131);}.cls-163{fill:url(#linear-gradient-132);}.cls-164{fill:url(#linear-gradient-133);}.cls-165{fill:url(#linear-gradient-134);}.cls-166{fill:#c9f5ff;}.cls-167{filter:url(#luminosity-noclip-4);}.cls-168{filter:url(#luminosity-noclip-3);}.cls-169{filter:url(#luminosity-noclip-2);}.cls-170{filter:url(#luminosity-noclip);}</style><filter id="luminosity-noclip" x="316.1" y="-8535.09" width="175.73" height="32766" filterUnits="userSpaceOnUse" color-interpolation-filters="sRGB"><feFlood flood-color="#fff" result="bg"/><feBlend in="SourceGraphic" in2="bg"/></filter><mask id="mask" x="316.1" y="-8535.09" width="175.73" height="32766" maskUnits="userSpaceOnUse"><g class="cls-170"/></mask><linearGradient id="linear-gradient" x1="499.02" y1="698.25" x2="330.75" y2="587.88" gradientUnits="userSpaceOnUse"><stop offset="0" stop-color="#999"/><stop offset="0.34" stop-color="#979797"/><stop offset="0.5" stop-color="#8f8f8f"/><stop offset="0.62" stop-color="#838383"/><stop offset="0.72" stop-color="#717171"/><stop offset="0.8" stop-color="#595959"/><stop offset="0.88" stop-color="#3c3c3c"/><stop offset="0.95" stop-color="#1a1a1a"/><stop offset="1"/></linearGradient><filter id="luminosity-noclip-2" x="377.91" y="-8535.09" width="308.83" height="32766" filterUnits="userSpaceOnUse" color-interpolation-filters="sRGB"><feFlood flood-color="#fff" result="bg"/><feBlend in="SourceGraphic" in2="bg"/></filter><mask id="mask-2" x="377.91" y="-8535.09" width="308.83" height="32766" maskUnits="userSpaceOnUse"><g class="cls-169"/></mask><linearGradient id="linear-gradient-2" x1="523.41" y1="653.71" x2="541.14" y2="494.72" xlink:href="#linear-gradient"/><filter id="luminosity-noclip-3" x="140.35" y="-8535.09" width="310.71" height="32766" filterUnits="userSpaceOnUse" color-interpolation-filters="sRGB"><feFlood flood-color="#fff" result="bg"/><feBlend in="SourceGraphic" in2="bg"/></filter><mask id="mask-3" x="140.35" y="-8535.09" width="310.71" height="32766" maskUnits="userSpaceOnUse"><g class="cls-168"/></mask><linearGradient id="linear-gradient-3" x1="140.35" y1="525.48" x2="451.06" y2="525.48" gradientUnits="userSpaceOnUse"><stop offset="0" stop-color="#999"/><stop offset="0.15" stop-color="#898989"/><stop offset="0.45" stop-color="#5d5d5d"/><stop offset="0.86" stop-color="#191919"/><stop offset="1"/></linearGradient><filter id="luminosity-noclip-4" x="36.74" y="-8535.09" width="206.48" height="32766" filterUnits="userSpaceOnUse" color-interpolation-filters="sRGB"><feFlood flood-color="#fff" result="bg"/><feBlend in="SourceGraphic" in2="bg"/></filter><mask id="mask-4" x="36.74" y="-8535.09" width="206.48" height="32766" maskUnits="userSpaceOnUse"><g class="cls-167"/></mask><linearGradient id="linear-gradient-4" x1="36.74" y1="633.23" x2="243.22" y2="633.23" gradientUnits="userSpaceOnUse"><stop offset="0"/><stop offset="0.05" stop-color="#1a1a1a"/><stop offset="0.12" stop-color="#3c3c3c"/><stop offset="0.2" stop-color="#595959"/><stop offset="0.28" stop-color="#717171"/><stop offset="0.38" stop-color="#838383"/><stop offset="0.5" stop-color="#8f8f8f"/><stop offset="0.66" stop-color="#979797"/><stop offset="1" stop-color="#999"/></linearGradient><filter id="luminosity-noclip-5" x="316.1" y="581.86" width="175.73" height="102.79" filterUnits="userSpaceOnUse" color-interpolation-filters="sRGB"><feFlood flood-color="#fff" result="bg"/><feBlend in="SourceGraphic" in2="bg"/></filter><mask id="mask-5" x="316.1" y="581.86" width="175.73" height="102.79" maskUnits="userSpaceOnUse"><g class="cls-1"><path class="cls-2" d="M486.22,663.71,432,632.19a11.19,11.19,0,0,0-8.43-1.11l-1.8-1.06a17.25,17.25,0,0,0,4.4-9.93l0,.14V609.64h0c0-15.34-24.64-27.78-55-27.78s-55,12.44-55,27.78v9.45c0,15.34,24.64,27.78,55,27.78,13.36,0,25.6-2.41,35.13-6.41l9.41,4.72a11,11,0,0,0,5.09,6.39l54.18,31.56a11.2,11.2,0,0,0,11,.12l.08,0A11.2,11.2,0,0,0,486.22,663.71ZM337.93,622.38c7.62,5,19.64,8.31,33.18,8.31,22,0,40-8.61,41.59-19.52a22.3,22.3,0,0,0-6.83-6.51,22.32,22.32,0,0,1,6.85,6.52c-1.55,10.91-19.57,19.52-41.59,19.52C357.58,630.7,345.55,627.43,337.93,622.38Zm72.26-20.12a18.56,18.56,0,0,0-1.58-1.85A18.56,18.56,0,0,1,410.19,602.26Zm-22.3-11.9c-2.2-.49-4.49-.88-6.87-1.18C383.4,589.48,385.7,589.87,387.89,590.36Zm-9.27-1.43c-2.43-.22-4.93-.34-7.49-.34h0C373.69,588.59,376.19,588.7,378.62,588.93Zm-49.06,22.39a11.23,11.23,0,0,0,.38,1.63c.11.35.24.7.39,1-.14-.34-.28-.69-.39-1a11.23,11.23,0,0,1-.38-1.63,10.75,10.75,0,0,1-.13-1.67A10.75,10.75,0,0,0,329.56,611.31Zm-5.65,12.6a30,30,0,0,1-2.38-2.22A30,30,0,0,0,323.9,623.91Zm2.23,1.72c-.61-.44-1.2-.88-1.76-1.34C324.93,624.75,325.52,625.19,326.13,625.63Zm86.27,11.84,3.1,1.72h0l-3.12-1.72Z"/></g></mask><linearGradient id="linear-gradient-5" x1="499.02" y1="698.25" x2="330.75" y2="587.88" gradientUnits="userSpaceOnUse"><stop offset="0"/><stop offset="0.3" stop-color="#020202"/><stop offset="0.44" stop-color="#0a0a0a"/><stop offset="0.54" stop-color="#161616"/><stop offset="0.63" stop-color="#282828"/><stop offset="0.71" stop-color="#404040"/><stop offset="0.78" stop-color="#5d5d5d"/><stop offset="0.84" stop-color="gray"/><stop offset="0.9" stop-color="#a8a8a8"/><stop offset="0.96" stop-color="#d4d4d4"/><stop offset="1" stop-color="#fff"/></linearGradient><linearGradient id="linear-gradient-6" x1="321.38" y1="620.83" x2="431.46" y2="620.83" gradientUnits="userSpaceOnUse"><stop offset="0" stop-color="#108ffe"/><stop offset="0.49" stop-color="#16aaff"/><stop offset="1" stop-color="#1ed4ff"/></linearGradient><linearGradient id="linear-gradient-7" x1="321.38" y1="602.21" x2="431.46" y2="602.21" gradientUnits="userSpaceOnUse"><stop offset="0" stop-color="#1ed4ff"/><stop offset="0.51" stop-color="#16aaff"/><stop offset="1" stop-color="#108ffe"/></linearGradient><linearGradient id="linear-gradient-8" x1="336.69" y1="606.19" x2="417.98" y2="606.19" xlink:href="#linear-gradient-7"/><linearGradient id="linear-gradient-9" x1="420.45" y1="650.25" x2="497.11" y2="650.25" gradientUnits="userSpaceOnUse"><stop offset="0" stop-color="#0845fc"/><stop offset="0.51" stop-color="#16aaff"/><stop offset="1" stop-color="#108ffe"/></linearGradient><filter id="luminosity-noclip-6" x="377.91" y="547.83" width="308.83" height="108.36" filterUnits="userSpaceOnUse" color-interpolation-filters="sRGB"><feFlood flood-color="#fff" result="bg"/><feBlend in="SourceGraphic" in2="bg"/></filter><mask id="mask-6" x="377.91" y="547.83" width="308.83" height="108.36" maskUnits="userSpaceOnUse"><g class="cls-3"><polygon class="cls-4" points="386.35 547.83 377.91 552.9 559.85 656.19 568.28 650.96 576.76 656.19 686.74 594.67 677.68 590.16 386.35 547.83"/></g></mask><linearGradient id="linear-gradient-10" x1="523.41" y1="653.71" x2="541.14" y2="494.72" xlink:href="#linear-gradient-5"/><linearGradient id="linear-gradient-11" x1="640.84" y1="617.5" x2="414.67" y2="507.1" gradientUnits="userSpaceOnUse"><stop offset="0" stop-color="#e6e6e6"/><stop offset="0.42" stop-color="#e9e9e9"/><stop offset="0.77" stop-color="#f3f3f3"/><stop offset="1" stop-color="#fff"/></linearGradient><linearGradient id="linear-gradient-12" x1="393.02" y1="497.02" x2="686.38" y2="497.02" gradientTransform="matrix(0.99, 0.14, -0.14, 0.99, 86.71, -10.88)" gradientUnits="userSpaceOnUse"><stop offset="0" stop-color="#fff"/><stop offset="0.4" stop-color="#fbfbfb"/><stop offset="0.8" stop-color="#efefef"/><stop offset="1" stop-color="#e6e6e6"/></linearGradient><linearGradient id="linear-gradient-13" x1="511.74" y1="575.13" x2="547.29" y2="575.13" gradientUnits="userSpaceOnUse"><stop offset="0" stop-color="#1ed4ff"/><stop offset="0.74" stop-color="#16aaff"/><stop offset="1" stop-color="#108ffe"/></linearGradient><linearGradient id="linear-gradient-14" x1="504.51" y1="565.75" x2="522.24" y2="565.75" gradientUnits="userSpaceOnUse"><stop offset="0" stop-color="#e4f3ff"/><stop offset="0.05" stop-color="#e0f2ff"/><stop offset="0.41" stop-color="#c7eaff"/><stop offset="0.73" stop-color="#b8e5ff"/><stop offset="1" stop-color="#b3e3ff"/></linearGradient><linearGradient id="linear-gradient-15" x1="492.82" y1="560.42" x2="515.46" y2="560.42" gradientUnits="userSpaceOnUse"><stop offset="0" stop-color="#ccc"/><stop offset="0.55" stop-color="#e2e2e2"/><stop offset="1" stop-color="#efefef"/></linearGradient><linearGradient id="linear-gradient-16" x1="502.88" y1="551.82" x2="520.36" y2="551.82" xlink:href="#linear-gradient-14"/><linearGradient id="linear-gradient-17" x1="491.36" y1="547.79" x2="517.75" y2="547.79" xlink:href="#linear-gradient-15"/><linearGradient id="linear-gradient-18" x1="505" y1="539.61" x2="520.79" y2="539.61" xlink:href="#linear-gradient-14"/><linearGradient id="linear-gradient-19" x1="492.2" y1="534.42" x2="515.24" y2="534.42" xlink:href="#linear-gradient-15"/><linearGradient id="linear-gradient-20" x1="558.16" y1="545.71" x2="575" y2="545.71" xlink:href="#linear-gradient-14"/><linearGradient id="linear-gradient-21" x1="546.61" y1="540.63" x2="568.31" y2="540.63" xlink:href="#linear-gradient-15"/><linearGradient id="linear-gradient-22" x1="549.5" y1="530.75" x2="570.9" y2="530.75" xlink:href="#linear-gradient-14"/><linearGradient id="linear-gradient-23" x1="542.92" y1="525.66" x2="559.15" y2="525.66" xlink:href="#linear-gradient-15"/><linearGradient id="linear-gradient-24" x1="510.06" y1="564.89" x2="558.53" y2="564.89" xlink:href="#linear-gradient-13"/><linearGradient id="linear-gradient-25" x1="510.56" y1="555.24" x2="569.88" y2="555.24" xlink:href="#linear-gradient-13"/><linearGradient id="linear-gradient-26" x1="512.27" y1="546.74" x2="580.34" y2="546.74" xlink:href="#linear-gradient-13"/><linearGradient id="linear-gradient-27" x1="506.14" y1="528.04" x2="520.51" y2="528.04" xlink:href="#linear-gradient-15"/><linearGradient id="linear-gradient-28" x1="508.68" y1="530.02" x2="525.55" y2="530.02" xlink:href="#linear-gradient-14"/><linearGradient id="linear-gradient-29" x1="565.29" y1="552.21" x2="591.11" y2="552.21" xlink:href="#linear-gradient-13"/><linearGradient id="linear-gradient-30" x1="561.3" y1="542.44" x2="601.19" y2="542.44" xlink:href="#linear-gradient-13"/><linearGradient id="linear-gradient-31" x1="506.47" y1="515.63" x2="518.99" y2="515.63" xlink:href="#linear-gradient-13"/><linearGradient id="linear-gradient-32" x1="514.81" y1="520.29" x2="527.36" y2="520.29" xlink:href="#linear-gradient-14"/><linearGradient id="linear-gradient-33" x1="524" y1="525.43" x2="536.58" y2="525.43" xlink:href="#linear-gradient-15"/><linearGradient id="linear-gradient-34" x1="543.07" y1="578.37" x2="631.86" y2="578.37" gradientUnits="userSpaceOnUse"><stop offset="0" stop-color="#acd2fe"/><stop offset="0.34" stop-color="#c8def8"/><stop offset="0.76" stop-color="#e4eaf1"/><stop offset="1" stop-color="#efefef"/></linearGradient><linearGradient id="linear-gradient-35" x1="552.83" y1="583.62" x2="641.62" y2="583.62" xlink:href="#linear-gradient-34"/><linearGradient id="linear-gradient-36" x1="565.42" y1="588.62" x2="654.21" y2="588.62" xlink:href="#linear-gradient-34"/><linearGradient id="linear-gradient-37" x1="575" y1="593.29" x2="663.8" y2="593.29" xlink:href="#linear-gradient-34"/><linearGradient id="linear-gradient-38" x1="426.67" y1="512.27" x2="515.47" y2="512.27" xlink:href="#linear-gradient-34"/><linearGradient id="linear-gradient-39" x1="435.21" y1="516.9" x2="524" y2="516.9" xlink:href="#linear-gradient-34"/><linearGradient id="linear-gradient-40" x1="227.21" y1="368.78" x2="267.52" y2="449.39" gradientUnits="userSpaceOnUse"><stop offset="0" stop-color="#e6e6e6"/><stop offset="0.16" stop-color="#e2e2e2"/><stop offset="0.3" stop-color="#d8d8d8"/><stop offset="0.44" stop-color="#c6c6c6"/><stop offset="0.51" stop-color="#b8b8b8"/><stop offset="0.55" stop-color="#cacaca"/><stop offset="0.6" stop-color="#dbdbdb"/><stop offset="0.66" stop-color="#e6e6e6"/><stop offset="0.75" stop-color="#ededed"/><stop offset="1" stop-color="#efefef"/></linearGradient><filter id="luminosity-noclip-7" x="140.35" y="434.89" width="310.71" height="181.18" filterUnits="userSpaceOnUse" color-interpolation-filters="sRGB"><feFlood flood-color="#fff" result="bg"/><feBlend in="SourceGraphic" in2="bg"/></filter><mask id="mask-7" x="140.35" y="434.89" width="310.71" height="181.18" maskUnits="userSpaceOnUse"><g class="cls-5"><polyline class="cls-6" points="155.69 545.89 140.35 554.63 247.81 616.07 451.06 499.97 339.9 434.89 155.69 545.89"/></g></mask><linearGradient id="linear-gradient-41" x1="140.35" y1="525.48" x2="451.06" y2="525.48" gradientUnits="userSpaceOnUse"><stop offset="0"/><stop offset="0.1" stop-color="#111"/><stop offset="0.29" stop-color="#3c3c3c"/><stop offset="0.56" stop-color="#818181"/><stop offset="0.9" stop-color="#e0e0e0"/><stop offset="1" stop-color="#fff"/></linearGradient><linearGradient id="linear-gradient-42" x1="367.39" y1="463.44" x2="181.43" y2="583.45" gradientUnits="userSpaceOnUse"><stop offset="0" stop-color="#e6e6e6"/><stop offset="0.99" stop-color="#fff"/><stop offset="1" stop-color="#fff"/></linearGradient><linearGradient id="linear-gradient-43" x1="179.12" y1="538.99" x2="203.09" y2="538.99" gradientUnits="userSpaceOnUse"><stop offset="0" stop-color="#108ffe"/><stop offset="0.26" stop-color="#16aaff"/><stop offset="1" stop-color="#1ed4ff"/></linearGradient><linearGradient id="linear-gradient-44" x1="194.04" y1="530.12" x2="218" y2="530.12" xlink:href="#linear-gradient-43"/><linearGradient id="linear-gradient-45" x1="209.06" y1="521.33" x2="233.02" y2="521.33" xlink:href="#linear-gradient-43"/><linearGradient id="linear-gradient-46" x1="223.97" y1="512.46" x2="247.94" y2="512.46" xlink:href="#linear-gradient-43"/><linearGradient id="linear-gradient-47" x1="239.9" y1="503.95" x2="263.86" y2="503.95" xlink:href="#linear-gradient-43"/><linearGradient id="linear-gradient-48" x1="254.81" y1="495.08" x2="278.78" y2="495.08" xlink:href="#linear-gradient-43"/><linearGradient id="linear-gradient-49" x1="269.83" y1="486.29" x2="293.79" y2="486.29" xlink:href="#linear-gradient-43"/><linearGradient id="linear-gradient-50" x1="284.75" y1="477.42" x2="308.71" y2="477.42" xlink:href="#linear-gradient-43"/><linearGradient id="linear-gradient-51" x1="300.25" y1="468.63" x2="324.21" y2="468.63" xlink:href="#linear-gradient-43"/><linearGradient id="linear-gradient-52" x1="315.16" y1="459.76" x2="339.12" y2="459.76" xlink:href="#linear-gradient-43"/><linearGradient id="linear-gradient-53" x1="330.18" y1="450.97" x2="354.14" y2="450.97" xlink:href="#linear-gradient-43"/><linearGradient id="linear-gradient-54" x1="193.36" y1="547.01" x2="217.32" y2="547.01" xlink:href="#linear-gradient-43"/><linearGradient id="linear-gradient-55" x1="208.28" y1="538.14" x2="232.24" y2="538.14" xlink:href="#linear-gradient-43"/><linearGradient id="linear-gradient-56" x1="223.29" y1="529.35" x2="247.26" y2="529.35" xlink:href="#linear-gradient-43"/><linearGradient id="linear-gradient-57" x1="238.21" y1="520.48" x2="262.17" y2="520.48" xlink:href="#linear-gradient-43"/><linearGradient id="linear-gradient-58" x1="254.13" y1="511.97" x2="278.1" y2="511.97" xlink:href="#linear-gradient-43"/><linearGradient id="linear-gradient-59" x1="269.05" y1="503.1" x2="293.01" y2="503.1" xlink:href="#linear-gradient-43"/><linearGradient id="linear-gradient-60" x1="284.07" y1="494.31" x2="308.03" y2="494.31" xlink:href="#linear-gradient-43"/><linearGradient id="linear-gradient-61" x1="298.98" y1="485.44" x2="322.95" y2="485.44" xlink:href="#linear-gradient-43"/><linearGradient id="linear-gradient-62" x1="314.48" y1="476.65" x2="338.44" y2="476.65" xlink:href="#linear-gradient-43"/><linearGradient id="linear-gradient-63" x1="329.4" y1="467.78" x2="353.36" y2="467.78" xlink:href="#linear-gradient-43"/><linearGradient id="linear-gradient-64" x1="344.42" y1="458.99" x2="368.38" y2="458.99" xlink:href="#linear-gradient-43"/><linearGradient id="linear-gradient-65" x1="206.54" y1="553.87" x2="230.5" y2="553.87" xlink:href="#linear-gradient-43"/><linearGradient id="linear-gradient-66" x1="221.46" y1="544.99" x2="245.42" y2="544.99" xlink:href="#linear-gradient-43"/><linearGradient id="linear-gradient-67" x1="236.48" y1="536.21" x2="260.44" y2="536.21" xlink:href="#linear-gradient-43"/><linearGradient id="linear-gradient-68" x1="251.39" y1="527.33" x2="275.35" y2="527.33" xlink:href="#linear-gradient-43"/><linearGradient id="linear-gradient-69" x1="267.32" y1="518.83" x2="291.28" y2="518.83" xlink:href="#linear-gradient-43"/><linearGradient id="linear-gradient-70" x1="282.23" y1="509.95" x2="306.19" y2="509.95" xlink:href="#linear-gradient-43"/><linearGradient id="linear-gradient-71" x1="297.25" y1="501.16" x2="321.21" y2="501.16" xlink:href="#linear-gradient-43"/><linearGradient id="linear-gradient-72" x1="312.17" y1="492.29" x2="336.13" y2="492.29" xlink:href="#linear-gradient-43"/><linearGradient id="linear-gradient-73" x1="327.66" y1="483.5" x2="351.62" y2="483.5" xlink:href="#linear-gradient-43"/><linearGradient id="linear-gradient-74" x1="342.58" y1="474.63" x2="366.54" y2="474.63" xlink:href="#linear-gradient-43"/><linearGradient id="linear-gradient-75" x1="357.6" y1="466.56" x2="381.56" y2="466.56" xlink:href="#linear-gradient-43"/><linearGradient id="linear-gradient-76" x1="220.78" y1="561.89" x2="244.74" y2="561.89" xlink:href="#linear-gradient-43"/><linearGradient id="linear-gradient-77" x1="235.69" y1="553.02" x2="259.66" y2="553.02" xlink:href="#linear-gradient-43"/><linearGradient id="linear-gradient-78" x1="250.71" y1="544.23" x2="274.67" y2="544.23" xlink:href="#linear-gradient-43"/><linearGradient id="linear-gradient-79" x1="265.63" y1="535.36" x2="289.59" y2="535.36" xlink:href="#linear-gradient-43"/><linearGradient id="linear-gradient-80" x1="356.81" y1="482.66" x2="380.78" y2="482.66" xlink:href="#linear-gradient-43"/><linearGradient id="linear-gradient-81" x1="341.38" y1="492.08" x2="365.34" y2="492.08" xlink:href="#linear-gradient-43"/><linearGradient id="linear-gradient-82" x1="371.3" y1="474.56" x2="395.26" y2="474.56" xlink:href="#linear-gradient-43"/><linearGradient id="linear-gradient-83" x1="302.74" y1="527.19" x2="367.01" y2="527.19" xlink:href="#linear-gradient-43"/><linearGradient id="linear-gradient-84" x1="283.4" y1="513.24" x2="349.45" y2="513.24" xlink:href="#linear-gradient-43"/><linearGradient id="linear-gradient-85" x1="675.03" y1="328.35" x2="522.52" y2="78.28" xlink:href="#linear-gradient-43"/><linearGradient id="linear-gradient-86" x1="498.5" y1="96.13" x2="689.67" y2="96.13" gradientUnits="userSpaceOnUse"><stop offset="0" stop-color="#3a608c"/><stop offset="0.05" stop-color="#366496"/><stop offset="0.24" stop-color="#2973bb"/><stop offset="0.44" stop-color="#1e7fd8"/><stop offset="0.63" stop-color="#1688ed"/><stop offset="0.82" stop-color="#128dfa"/><stop offset="1" stop-color="#108ffe"/></linearGradient><linearGradient id="linear-gradient-87" x1="682.92" y1="240.76" x2="689.67" y2="240.76" xlink:href="#linear-gradient-86"/><linearGradient id="linear-gradient-88" x1="45.38" y1="93.51" x2="386.67" y2="93.51" gradientUnits="userSpaceOnUse"><stop offset="0" stop-color="#3a608c"/><stop offset="0.06" stop-color="#306ca8"/><stop offset="0.12" stop-color="#2677c3"/><stop offset="0.2" stop-color="#1e80d9"/><stop offset="0.29" stop-color="#1887ea"/><stop offset="0.41" stop-color="#138bf5"/><stop offset="0.56" stop-color="#118efc"/><stop offset="1" stop-color="#108ffe"/></linearGradient><linearGradient id="linear-gradient-89" x1="34.42" y1="227.51" x2="394.99" y2="227.51" xlink:href="#linear-gradient-43"/><linearGradient id="linear-gradient-90" x1="42.06" y1="453.86" x2="354.51" y2="304.43" gradientUnits="userSpaceOnUse"><stop offset="0" stop-color="#e6e6e6"/><stop offset="1" stop-color="#f2f2f2"/></linearGradient><linearGradient id="linear-gradient-91" x1="39.91" y1="204.3" x2="39.91" y2="440.65" gradientUnits="userSpaceOnUse"><stop offset="0" stop-color="#3a608c"/><stop offset="1" stop-color="#108ffe"/></linearGradient><linearGradient id="linear-gradient-92" x1="425.96" y1="449" x2="434.33" y2="412.97" gradientUnits="userSpaceOnUse"><stop offset="0" stop-color="#f7fbff"/><stop offset="0.53" stop-color="#f5f9fd"/><stop offset="0.74" stop-color="#eef2f6"/><stop offset="0.9" stop-color="#e2e6ea"/><stop offset="1" stop-color="#d5d9dd"/></linearGradient><linearGradient id="linear-gradient-93" x1="469.55" y1="303.82" x2="499.35" y2="288.53" gradientUnits="userSpaceOnUse"><stop offset="0" stop-color="#1185ed"/><stop offset="0.51" stop-color="#16aaff"/><stop offset="1" stop-color="#1ed4ff"/></linearGradient><linearGradient id="linear-gradient-94" x1="468.92" y1="308.52" x2="468.92" y2="393.03" xlink:href="#linear-gradient-43"/><linearGradient id="linear-gradient-95" x1="496.83" y1="307.69" x2="496.83" y2="374.56" gradientUnits="userSpaceOnUse"><stop offset="0" stop-color="#1ed4ff"/><stop offset="0.14" stop-color="#2ad6ff"/><stop offset="0.71" stop-color="#54deff"/><stop offset="1" stop-color="#64e1ff"/></linearGradient><linearGradient id="linear-gradient-96" x1="533.64" y1="367.34" x2="563.44" y2="352.05" gradientUnits="userSpaceOnUse"><stop offset="0" stop-color="#1185ed"/><stop offset="0.43" stop-color="#16aaff"/><stop offset="1" stop-color="#1ed4ff"/></linearGradient><linearGradient id="linear-gradient-97" x1="533" y1="369.17" x2="533" y2="433.15" xlink:href="#linear-gradient-43"/><linearGradient id="linear-gradient-98" x1="560.92" y1="368.64" x2="560.92" y2="419.2" xlink:href="#linear-gradient-95"/><linearGradient id="linear-gradient-99" x1="596.65" y1="447.67" x2="626.45" y2="432.38" gradientUnits="userSpaceOnUse"><stop offset="0" stop-color="#1185ed"/><stop offset="0.55" stop-color="#16aaff"/><stop offset="1" stop-color="#1ed4ff"/></linearGradient><linearGradient id="linear-gradient-100" x1="596.01" y1="444.75" x2="596.01" y2="474.76" xlink:href="#linear-gradient-43"/><linearGradient id="linear-gradient-101" x1="623.93" y1="444.73" x2="623.93" y2="468.29" xlink:href="#linear-gradient-95"/><linearGradient id="linear-gradient-102" x1="559.5" y1="261.3" x2="559.5" y2="433.55" xlink:href="#linear-gradient-95"/><linearGradient id="linear-gradient-103" x1="476.28" y1="259.67" x2="476.28" y2="263.82" xlink:href="#linear-gradient-95"/><linearGradient id="linear-gradient-104" x1="517.2" y1="283.76" x2="517.2" y2="287.91" xlink:href="#linear-gradient-95"/><linearGradient id="linear-gradient-105" x1="529.25" y1="313.26" x2="529.25" y2="317.42" xlink:href="#linear-gradient-95"/><linearGradient id="linear-gradient-106" x1="585.4" y1="354.47" x2="585.4" y2="358.62" xlink:href="#linear-gradient-95"/><linearGradient id="linear-gradient-107" x1="607.8" y1="408.84" x2="607.8" y2="412.99" xlink:href="#linear-gradient-95"/><linearGradient id="linear-gradient-108" x1="642.7" y1="431.04" x2="642.7" y2="435.19" xlink:href="#linear-gradient-95"/><linearGradient id="linear-gradient-109" x1="130.58" y1="204.3" x2="269.03" y2="204.3" gradientUnits="userSpaceOnUse"><stop offset="0" stop-color="#108ffe"/><stop offset="1" stop-color="#0f7bbf"/></linearGradient><filter id="luminosity-noclip-8" x="36.74" y="563.98" width="206.48" height="138.5" filterUnits="userSpaceOnUse" color-interpolation-filters="sRGB"><feFlood flood-color="#fff" result="bg"/><feBlend in="SourceGraphic" in2="bg"/></filter><mask id="mask-8" x="36.74" y="563.98" width="206.48" height="138.5" maskUnits="userSpaceOnUse"><g class="cls-7"><path class="cls-8" d="M145.17,590.95l-.24.14.24-.14-17.71-27L37.25,615.13l-.51,11.43,18.43,26.35,90,49.57,98.05-56.41-7.5-3.46Z"/></g></mask><linearGradient id="linear-gradient-110" x1="36.74" y1="633.23" x2="243.22" y2="633.23" gradientUnits="userSpaceOnUse"><stop offset="0" stop-color="#fff"/><stop offset="0.04" stop-color="#d4d4d4"/><stop offset="0.1" stop-color="#a8a8a8"/><stop offset="0.16" stop-color="gray"/><stop offset="0.22" stop-color="#5d5d5d"/><stop offset="0.29" stop-color="#404040"/><stop offset="0.37" stop-color="#282828"/><stop offset="0.46" stop-color="#161616"/><stop offset="0.56" stop-color="#0a0a0a"/><stop offset="0.7" stop-color="#020202"/><stop offset="1"/></linearGradient><linearGradient id="linear-gradient-111" x1="56.86" y1="632.01" x2="237.41" y2="632.01" xlink:href="#linear-gradient-13"/><linearGradient id="linear-gradient-112" x1="71.08" y1="630.63" x2="99.75" y2="630.63" xlink:href="#linear-gradient-14"/><linearGradient id="linear-gradient-113" x1="90.42" y1="619.31" x2="119.09" y2="619.31" xlink:href="#linear-gradient-14"/><linearGradient id="linear-gradient-114" x1="109.3" y1="608.2" x2="137.97" y2="608.2" xlink:href="#linear-gradient-14"/><linearGradient id="linear-gradient-115" x1="129.48" y1="596.77" x2="158.14" y2="596.77" xlink:href="#linear-gradient-14"/><linearGradient id="linear-gradient-116" x1="86.68" y1="639.54" x2="115.35" y2="639.54" xlink:href="#linear-gradient-14"/><linearGradient id="linear-gradient-117" x1="106.01" y1="628.22" x2="134.68" y2="628.22" xlink:href="#linear-gradient-14"/><linearGradient id="linear-gradient-118" x1="124.9" y1="617.11" x2="153.57" y2="617.11" xlink:href="#linear-gradient-14"/><linearGradient id="linear-gradient-119" x1="162.1" y1="623.77" x2="224.52" y2="623.77" xlink:href="#linear-gradient-14"/><linearGradient id="linear-gradient-120" x1="102.74" y1="648.78" x2="131.4" y2="648.78" xlink:href="#linear-gradient-14"/><linearGradient id="linear-gradient-121" x1="122.07" y1="637.46" x2="150.74" y2="637.46" xlink:href="#linear-gradient-14"/><linearGradient id="linear-gradient-122" x1="140.95" y1="626.35" x2="169.62" y2="626.35" xlink:href="#linear-gradient-14"/><linearGradient id="linear-gradient-123" x1="119.09" y1="657.13" x2="147.75" y2="657.13" xlink:href="#linear-gradient-14"/><linearGradient id="linear-gradient-124" x1="138.42" y1="645.81" x2="167.09" y2="645.81" xlink:href="#linear-gradient-14"/><linearGradient id="linear-gradient-125" x1="157.3" y1="634.7" x2="185.97" y2="634.7" xlink:href="#linear-gradient-14"/><linearGradient id="linear-gradient-126" x1="136.23" y1="667.8" x2="164.9" y2="667.8" xlink:href="#linear-gradient-14"/><linearGradient id="linear-gradient-127" x1="155.56" y1="656.48" x2="184.23" y2="656.48" xlink:href="#linear-gradient-14"/><linearGradient id="linear-gradient-128" x1="174.45" y1="645.37" x2="203.11" y2="645.37" xlink:href="#linear-gradient-14"/><linearGradient id="linear-gradient-129" x1="144.6" y1="606.21" x2="173.27" y2="606.21" xlink:href="#linear-gradient-14"/><linearGradient id="linear-gradient-130" x1="38.95" y1="592.91" x2="146.86" y2="592.91" xlink:href="#linear-gradient-13"/><linearGradient id="linear-gradient-131" x1="52.72" y1="592.91" x2="138.39" y2="592.91" gradientUnits="userSpaceOnUse"><stop offset="0" stop-color="#c9f5ff"/><stop offset="0.12" stop-color="#bcf2ff"/><stop offset="0.36" stop-color="#99ecff"/><stop offset="0.67" stop-color="#61e1ff"/><stop offset="1" stop-color="#1ed4ff"/></linearGradient><linearGradient id="linear-gradient-132" x1="38.43" y1="623.57" x2="56.86" y2="623.57" xlink:href="#linear-gradient-43"/><linearGradient id="linear-gradient-133" x1="56.86" y1="662.17" x2="147.27" y2="662.17" gradientUnits="userSpaceOnUse"><stop offset="0" stop-color="#1ed4ff"/><stop offset="0.1" stop-color="#1cc8ff"/><stop offset="0.28" stop-color="#19b7ff"/><stop offset="0.49" stop-color="#17adff"/><stop offset="0.74" stop-color="#16aaff"/><stop offset="1" stop-color="#108ffe"/></linearGradient><linearGradient id="linear-gradient-134" x1="155.08" y1="682.88" x2="238.88" y2="635.88" gradientUnits="userSpaceOnUse"><stop offset="0" stop-color="#108ffe"/><stop offset="0.71" stop-color="#16aaff"/><stop offset="0.83" stop-color="#16adff"/><stop offset="0.9" stop-color="#18b5ff"/><stop offset="0.95" stop-color="#1bc3ff"/><stop offset="1" stop-color="#1ed4ff"/></linearGradient></defs><title>img-left</title><g class="cls-9"><g id="Layer_3" data-name="Layer 3"><g class="cls-10"><path class="cls-11" d="M486.22,663.71,432,632.19a11.19,11.19,0,0,0-8.43-1.11l-1.8-1.06a17.25,17.25,0,0,0,4.4-9.93l0,.14V609.64h0c0-15.34-24.64-27.78-55-27.78s-55,12.44-55,27.78v9.45c0,15.34,24.64,27.78,55,27.78,13.36,0,25.6-2.41,35.13-6.41l9.41,4.72a11,11,0,0,0,5.09,6.39l54.18,31.56a11.2,11.2,0,0,0,11,.12l.08,0A11.2,11.2,0,0,0,486.22,663.71ZM337.93,622.38c7.62,5,19.64,8.31,33.18,8.31,22,0,40-8.61,41.59-19.52a22.3,22.3,0,0,0-6.83-6.51,22.32,22.32,0,0,1,6.85,6.52c-1.55,10.91-19.57,19.52-41.59,19.52C357.58,630.7,345.55,627.43,337.93,622.38Zm72.26-20.12a18.56,18.56,0,0,0-1.58-1.85A18.56,18.56,0,0,1,410.19,602.26Zm-22.3-11.9c-2.2-.49-4.49-.88-6.87-1.18C383.4,589.48,385.7,589.87,387.89,590.36Zm-9.27-1.43c-2.43-.22-4.93-.34-7.49-.34h0C373.69,588.59,376.19,588.7,378.62,588.93Zm-49.06,22.39a11.23,11.23,0,0,0,.38,1.63c.11.35.24.7.39,1-.14-.34-.28-.69-.39-1a11.23,11.23,0,0,1-.38-1.63,10.75,10.75,0,0,1-.13-1.67A10.75,10.75,0,0,0,329.56,611.31Zm-5.65,12.6a30,30,0,0,1-2.38-2.22A30,30,0,0,0,323.9,623.91Zm2.23,1.72c-.61-.44-1.2-.88-1.76-1.34C324.93,624.75,325.52,625.19,326.13,625.63Zm86.27,11.84,3.1,1.72h0l-3.12-1.72Z"/></g><path class="cls-12" d="M376.42,630c-30.4,0-55-12.44-55-27.78v9.45c0,15.34,24.64,27.78,55,27.78,29.74,0,53.95-11.91,55-26.79l0,.14V602.22C431.46,617.56,406.82,630,376.42,630Z"/><path class="cls-13" d="M376.42,574.43c-30.4,0-55,12.44-55,27.78S346,630,376.42,630s55-12.44,55-27.78h0C431.46,586.87,406.82,574.43,376.42,574.43ZM418,603.75c-1.55,10.91-19.57,19.52-41.59,19.52-15.48,0-29-4.26-36.18-10.59a19.08,19.08,0,0,1-3.52-4,11.89,11.89,0,0,1-2-6.44c0-4.74,3.11-9.12,8.35-12.64,7.61-5.11,19.72-8.42,33.36-8.42s25.72,3.3,33.33,8.41a20.72,20.72,0,0,1,7,7.2,11.56,11.56,0,0,1,1.42,5.45A10.85,10.85,0,0,1,418,603.75Z"/><path class="cls-14" d="M416.71,596.77a20.72,20.72,0,0,0-7-7.2c-7.61-5.1-19.7-8.41-33.33-8.41s-25.75,3.31-33.36,8.42c-5.24,3.52-8.35,7.9-8.35,12.64a11.89,11.89,0,0,0,2,6.44c1.55-10.91,19.57-19.52,41.59-19.52,18.58,0,34.31,6.14,39.71,14.61a10.85,10.85,0,0,0,.12-1.53A11.56,11.56,0,0,0,416.71,596.77Z"/><path class="cls-15" d="M378.28,589.12c-22,0-40,8.61-41.59,19.52a19.08,19.08,0,0,0,3.52,4c7.2,6.32,20.7,10.59,36.18,10.59,22,0,40-8.61,41.59-19.52C412.59,595.26,396.86,589.12,378.28,589.12Z"/><polygon class="cls-16" points="411.38 626.53 421.67 632.25 432.73 625.97 422.67 620.03 411.38 626.53"/><polygon class="cls-17" points="421.36 637.97 421.67 632.25 411.28 626.53 411.28 632.91 421.36 637.97"/><polygon class="cls-17" points="432.64 625.97 432.64 631.42 421.36 637.97 421.67 632.25 432.64 625.97"/><path class="cls-18" d="M425.76,624.94h0a11.2,11.2,0,0,0,.29,19.22l54.18,31.56a11.2,11.2,0,0,0,11,.12l.08,0a11.2,11.2,0,0,0,.21-19.52l-54.26-31.51A11.2,11.2,0,0,0,425.76,624.94Z"/><g class="cls-19"><polygon class="cls-20" points="386.35 547.83 377.91 552.9 559.85 656.19 568.28 650.96 576.76 656.19 686.74 594.67 677.68 590.16 386.35 547.83"/></g><polygon class="cls-21" points="486.51 477.71 670.03 582.19 562.94 643.93 379.71 539.72 486.51 477.71"/><polygon class="cls-17" points="379.71 539.72 379.72 543.95 562.96 648.16 562.94 643.93 379.71 539.72"/><polygon class="cls-17" points="670.03 582.19 670.04 586.42 562.96 648.16 562.94 643.93 670.03 582.19"/><polygon class="cls-22" points="509.36 476.29 694.66 577.56 588.67 641.15 403.65 540.14 509.36 476.29"/><polygon class="cls-17" points="403.65 540.14 403.74 544.38 588.75 645.38 588.67 641.15 403.65 540.14"/><polygon class="cls-17" points="694.66 577.56 694.75 581.79 588.75 645.38 588.67 641.15 694.66 577.56"/><polygon class="cls-23" points="547.29 579.33 536.89 585.36 511.74 570.75 522.24 564.9 547.29 579.33"/><polygon class="cls-24" points="522.24 564.9 511.74 570.75 504.51 566.55 515.05 560.76 522.24 564.9"/><polyline class="cls-25" points="504.93 566.79 492.82 559.76 503.41 554.05 515.46 561"/><polygon class="cls-26" points="520.36 551.02 509.99 556.66 502.88 552.57 513.27 546.98 520.36 551.02"/><polyline class="cls-27" points="507.38 555.15 491.36 545.94 501.81 540.43 517.75 549.53"/><polygon class="cls-28" points="520.79 538.46 510.57 543.91 505 540.73 515.24 535.32 520.79 538.46"/><polyline class="cls-29" points="505 540.73 492.2 533.44 502.5 528.11 515.24 535.32"/><polygon class="cls-30" points="575 544.94 565.29 550.42 558.16 546.42 567.9 540.99 575 544.94"/><polyline class="cls-31" points="558.57 546.65 546.61 539.95 556.4 534.6 568.3 541.22"/><polygon class="cls-32" points="570.9 531.35 561.3 536.63 549.5 530.07 559.15 524.87 570.9 531.35"/><polyline class="cls-33" points="549.5 530.07 542.92 526.42 552.6 521.25 559.15 524.87"/><polygon class="cls-34" points="558.53 572.8 548.33 578.72 510.06 556.7 520.43 551.06 558.53 572.8"/><polygon class="cls-35" points="569.88 566.22 559.88 572.02 510.56 543.9 520.78 538.45 569.88 566.22"/><polygon class="cls-36" points="580.34 560.15 570.52 565.84 512.27 532.92 522.34 527.63 580.34 560.15"/><polygon class="cls-37" points="520.51 526.6 510.43 531.88 506.14 529.46 516.25 524.21 520.51 526.6"/><polygon class="cls-38" points="525.55 529.32 515.47 534.6 508.68 530.77 518.62 525.43 525.55 529.32"/><polygon class="cls-39" points="591.11 553.9 581.48 559.49 565.29 550.42 575 544.94 591.11 553.9"/><polygon class="cls-40" points="601.19 548.05 591.73 553.54 561.3 536.63 570.9 531.35 601.19 548.05"/><polygon class="cls-41" points="518.99 516.09 513.34 518.99 506.47 515.15 512.14 512.27 518.99 516.09"/><polygon class="cls-17" points="535.66 507.51 520.48 515.32 518.03 513.96 533.23 506.18 535.66 507.51"/><polygon class="cls-17" points="544.13 512.17 529 520.06 526.54 518.7 541.68 510.82 544.13 512.17"/><polygon class="cls-17" points="552.66 516.86 537.6 524.84 535.12 523.47 550.21 515.51 552.66 516.86"/><polygon class="cls-42" points="527.36 520.74 521.72 523.68 514.81 519.81 520.46 516.9 527.36 520.74"/><polygon class="cls-43" points="536.58 525.88 530.97 528.86 524 524.96 529.63 522.01 536.58 525.88"/><polygon class="cls-44" points="546.42 604.87 631.86 553.61 628 551.88 543.07 603.04 546.42 604.87"/><polygon class="cls-45" points="556.18 610.12 641.62 558.85 637.76 557.12 552.83 608.28 556.18 610.12"/><polygon class="cls-46" points="568.77 615.12 654.21 563.86 650.35 562.12 565.41 613.28 568.77 615.12"/><polygon class="cls-47" points="578.36 619.79 663.8 568.52 659.93 566.79 575 617.95 578.36 619.79"/><polygon class="cls-48" points="430.03 538.77 515.47 487.5 511.61 485.77 426.67 536.93 430.03 538.77"/><polygon class="cls-49" points="438.56 543.4 524 492.14 520.14 490.4 435.21 541.57 438.56 543.4"/><polygon class="cls-50" points="453.47 397.69 482.85 381.11 509.3 398.17 481.2 414.3 453.47 397.69"/><polygon class="cls-50" points="517.55 434.01 546.94 417.43 573.39 434.49 545.29 450.63 517.55 434.01"/><polygon class="cls-50" points="580.38 468.51 609.77 451.93 636.22 468.99 608.12 485.13 580.38 468.51"/><path class="cls-51" d="M197.8,389.2v36.6a22.77,22.77,0,0,0,11.32,19.68l22.47,12.75,65.47-38L274.7,408a22.77,22.77,0,0,1-11.5-19.78V351.35Z"/><path class="cls-52" d="M203.3,384.31v36.55a22.77,22.77,0,0,0,11.39,19.72l16.91,9.5,65.47-38-16.77-9a22.77,22.77,0,0,1-11.6-19.84V346.46Z"/><polygon class="cls-51" points="297.07 412.08 297.07 420.26 231.6 458.27 231.6 450.08 297.07 412.08"/><g class="cls-53"><polyline class="cls-54" points="155.69 545.89 140.35 554.63 247.81 616.07 451.06 499.97 339.9 434.89 155.69 545.89"/></g><polygon class="cls-50" points="248.22 605.25 442.41 495.36 334.51 438.61 140.48 542.48 248.22 605.25"/><polygon class="cls-55" points="248.22 597.99 442.41 488.11 334.51 426.97 140.48 536.78 248.22 597.99"/><polygon class="cls-17" points="140.48 536.78 140.48 544.04 248.22 605.25 248.22 597.99 140.48 536.78"/><polygon class="cls-50" points="442.41 488.11 442.41 495.36 430.71 494.73 442.41 488.11"/><polygon class="cls-56" points="179.13 541.15 192.31 533.77 203.09 539.73 190.08 547.08 179.13 541.15"/><polygon class="cls-57" points="179.13 539.71 192.31 532.34 203.09 538.29 190.08 545.64 179.13 539.71"/><polygon class="cls-58" points="179.13 539.71 179.13 541.15 190.08 547.08 190.08 545.64 179.13 539.71"/><polygon class="cls-59" points="203.09 538.29 203.09 539.73 190.08 547.08 190.08 545.64 203.09 538.29"/><polygon class="cls-56" points="194.04 532.27 207.23 524.9 218 530.85 205 538.21 194.04 532.27"/><polygon class="cls-60" points="194.04 530.84 207.23 523.47 218 529.42 205 536.77 194.04 530.84"/><polygon class="cls-58" points="194.04 530.84 194.04 532.27 205 538.21 205 536.77 194.04 530.84"/><polygon class="cls-59" points="218 529.42 218 530.85 205 538.21 205 536.77 218 529.42"/><polygon class="cls-56" points="209.06 523.49 222.25 516.11 233.02 522.06 220.01 529.42 209.06 523.49"/><polygon class="cls-61" points="209.06 522.05 222.25 514.68 233.02 520.63 220.01 527.98 209.06 522.05"/><polygon class="cls-58" points="209.06 522.05 209.06 523.49 220.01 529.42 220.01 527.98 209.06 522.05"/><polygon class="cls-59" points="233.02 520.63 233.02 522.06 220.01 529.42 220.01 527.98 233.02 520.63"/><polygon class="cls-56" points="223.97 514.61 237.16 507.24 247.94 513.19 234.93 520.55 223.97 514.61"/><polygon class="cls-62" points="223.97 513.18 237.16 505.8 247.94 511.76 234.93 519.11 223.97 513.18"/><polygon class="cls-58" points="223.97 513.18 223.97 514.61 234.93 520.55 234.93 519.11 223.97 513.18"/><polygon class="cls-59" points="247.94 511.76 247.94 513.19 234.93 520.55 234.93 519.11 247.94 511.76"/><polygon class="cls-56" points="239.9 506.11 253.09 498.73 263.86 504.68 250.85 512.04 239.9 506.11"/><polygon class="cls-63" points="239.9 504.67 253.09 497.3 263.86 503.25 250.85 510.6 239.9 504.67"/><polygon class="cls-58" points="239.9 504.67 239.9 506.11 250.85 512.04 250.85 510.6 239.9 504.67"/><polygon class="cls-59" points="263.86 503.25 263.86 504.68 250.85 512.04 250.85 510.6 263.86 503.25"/><polygon class="cls-56" points="254.81 497.23 268 489.86 278.78 495.81 265.77 503.17 254.81 497.23"/><polygon class="cls-64" points="254.81 495.8 268 488.42 278.78 494.38 265.77 501.73 254.81 495.8"/><polygon class="cls-58" points="254.81 495.8 254.81 497.23 265.77 503.17 265.77 501.73 254.81 495.8"/><polygon class="cls-59" points="278.78 494.38 278.78 495.81 265.77 503.17 265.77 501.73 278.78 494.38"/><polygon class="cls-56" points="269.83 488.44 283.02 481.07 293.79 487.02 280.79 494.38 269.83 488.44"/><polygon class="cls-65" points="269.83 487.01 283.02 479.63 293.79 485.59 280.79 492.94 269.83 487.01"/><polygon class="cls-58" points="269.83 487.01 269.83 488.44 280.79 494.38 280.79 492.94 269.83 487.01"/><polygon class="cls-59" points="293.79 485.59 293.79 487.02 280.79 494.38 280.79 492.94 293.79 485.59"/><polygon class="cls-56" points="284.75 479.57 297.94 472.2 308.71 478.15 295.7 485.5 284.75 479.57"/><polygon class="cls-66" points="284.75 478.14 297.94 470.76 308.71 476.72 295.7 484.07 284.75 478.14"/><polygon class="cls-58" points="284.75 478.14 284.75 479.57 295.7 485.5 295.7 484.07 284.75 478.14"/><polygon class="cls-59" points="308.71 476.72 308.71 478.15 295.7 485.5 295.7 484.07 308.71 476.72"/><polygon class="cls-56" points="300.25 470.78 313.43 463.41 324.21 469.36 311.2 476.72 300.25 470.78"/><polygon class="cls-67" points="300.25 469.35 313.43 461.97 324.21 467.93 311.2 475.28 300.25 469.35"/><polygon class="cls-58" points="300.25 469.35 300.25 470.78 311.2 476.72 311.2 475.28 300.25 469.35"/><polygon class="cls-59" points="324.21 467.93 324.21 469.36 311.2 476.72 311.2 475.28 324.21 467.93"/><polygon class="cls-56" points="315.16 461.91 328.35 454.54 339.12 460.49 326.12 467.84 315.16 461.91"/><polygon class="cls-68" points="315.16 460.48 328.35 453.1 339.12 459.06 326.12 466.41 315.16 460.48"/><polygon class="cls-58" points="315.16 460.48 315.16 461.91 326.12 467.84 326.12 466.41 315.16 460.48"/><polygon class="cls-59" points="339.12 459.06 339.12 460.49 326.12 467.84 326.12 466.41 339.12 459.06"/><polygon class="cls-56" points="330.18 453.12 343.37 445.75 354.14 451.7 341.13 459.06 330.18 453.12"/><polygon class="cls-69" points="330.18 451.69 343.37 444.31 354.14 450.27 341.13 457.62 330.18 451.69"/><polygon class="cls-58" points="330.18 451.69 330.18 453.12 341.13 459.06 341.13 457.62 330.18 451.69"/><polygon class="cls-59" points="354.14 450.27 354.14 451.7 341.13 459.06 341.13 457.62 354.14 450.27"/><polygon class="cls-56" points="193.36 549.17 206.55 541.8 217.32 547.75 204.31 555.1 193.36 549.17"/><polygon class="cls-70" points="193.36 547.74 206.55 540.36 217.32 546.31 204.31 553.67 193.36 547.74"/><polygon class="cls-58" points="193.36 547.74 193.36 549.17 204.31 555.1 204.31 553.67 193.36 547.74"/><polygon class="cls-59" points="217.32 546.31 217.32 547.75 204.31 555.1 204.31 553.67 217.32 546.31"/><polygon class="cls-56" points="208.28 540.3 221.46 532.92 232.24 538.88 219.23 546.23 208.28 540.3"/><polygon class="cls-71" points="208.28 538.86 221.46 531.49 232.24 537.44 219.23 544.79 208.28 538.86"/><polygon class="cls-58" points="208.28 538.86 208.28 540.3 219.23 546.23 219.23 544.79 208.28 538.86"/><polygon class="cls-59" points="232.24 537.44 232.24 538.88 219.23 546.23 219.23 544.79 232.24 537.44"/><polygon class="cls-56" points="223.29 531.51 236.48 524.13 247.26 530.09 234.25 537.44 223.29 531.51"/><polygon class="cls-72" points="223.29 530.07 236.48 522.7 247.26 528.65 234.25 536.01 223.29 530.07"/><polygon class="cls-58" points="223.29 530.07 223.29 531.51 234.25 537.44 234.25 536.01 223.29 530.07"/><polygon class="cls-59" points="247.26 528.65 247.26 530.09 234.25 537.44 234.25 536.01 247.26 528.65"/><polygon class="cls-56" points="238.21 522.64 251.4 515.26 262.17 521.22 249.16 528.57 238.21 522.64"/><polygon class="cls-73" points="238.21 521.2 251.4 513.83 262.17 519.78 249.16 527.13 238.21 521.2"/><polygon class="cls-58" points="238.21 521.2 238.21 522.64 249.16 528.57 249.16 527.13 238.21 521.2"/><polygon class="cls-59" points="262.17 519.78 262.17 521.22 249.16 528.57 249.16 527.13 262.17 519.78"/><polygon class="cls-56" points="254.13 514.13 267.32 506.75 278.1 512.71 265.09 520.06 254.13 514.13"/><polygon class="cls-74" points="254.13 512.69 267.32 505.32 278.1 511.27 265.09 518.63 254.13 512.69"/><polygon class="cls-58" points="254.13 512.69 254.13 514.13 265.09 520.06 265.09 518.63 254.13 512.69"/><polygon class="cls-59" points="278.1 511.27 278.1 512.71 265.09 520.06 265.09 518.63 278.1 511.27"/><polygon class="cls-56" points="269.05 505.26 282.24 497.88 293.01 503.84 280 511.19 269.05 505.26"/><polygon class="cls-75" points="269.05 503.82 282.24 496.45 293.01 502.4 280 509.75 269.05 503.82"/><polygon class="cls-58" points="269.05 503.82 269.05 505.26 280 511.19 280 509.75 269.05 503.82"/><polygon class="cls-59" points="293.01 502.4 293.01 503.84 280 511.19 280 509.75 293.01 502.4"/><polygon class="cls-56" points="284.07 496.47 297.26 489.09 308.03 495.05 295.02 502.4 284.07 496.47"/><polygon class="cls-76" points="284.07 495.03 297.26 487.66 308.03 493.61 295.02 500.96 284.07 495.03"/><polygon class="cls-58" points="284.07 495.03 284.07 496.47 295.02 502.4 295.02 500.96 284.07 495.03"/><polygon class="cls-59" points="308.03 493.61 308.03 495.05 295.02 502.4 295.02 500.96 308.03 493.61"/><polygon class="cls-56" points="298.99 487.6 312.17 480.22 322.95 486.18 309.94 493.53 298.99 487.6"/><polygon class="cls-77" points="298.99 486.16 312.17 478.79 322.95 484.74 309.94 492.09 298.99 486.16"/><polygon class="cls-58" points="298.99 486.16 298.99 487.6 309.94 493.53 309.94 492.09 298.99 486.16"/><polygon class="cls-59" points="322.95 484.74 322.95 486.18 309.94 493.53 309.94 492.09 322.95 484.74"/><polygon class="cls-56" points="314.48 478.81 327.67 471.43 338.44 477.39 325.44 484.74 314.48 478.81"/><polygon class="cls-78" points="314.48 477.37 327.67 470 338.44 475.95 325.44 483.3 314.48 477.37"/><polygon class="cls-58" points="314.48 477.37 314.48 478.81 325.44 484.74 325.44 483.3 314.48 477.37"/><polygon class="cls-59" points="338.44 475.95 338.44 477.39 325.44 484.74 325.44 483.3 338.44 475.95"/><polygon class="cls-56" points="329.4 469.94 342.58 462.56 353.36 468.51 340.35 475.87 329.4 469.94"/><polygon class="cls-79" points="329.4 468.5 342.58 461.13 353.36 467.08 340.35 474.43 329.4 468.5"/><polygon class="cls-58" points="329.4 468.5 329.4 469.94 340.35 475.87 340.35 474.43 329.4 468.5"/><polygon class="cls-59" points="353.36 467.08 353.36 468.51 340.35 475.87 340.35 474.43 353.36 467.08"/><polygon class="cls-56" points="344.42 461.15 357.6 453.77 368.38 459.73 355.37 467.08 344.42 461.15"/><polygon class="cls-80" points="344.42 459.71 357.6 452.34 368.38 458.29 355.37 465.64 344.42 459.71"/><polygon class="cls-58" points="344.42 459.71 344.42 461.15 355.37 467.08 355.37 465.64 344.42 459.71"/><polygon class="cls-59" points="368.38 458.29 368.38 459.73 355.37 467.08 355.37 465.64 368.38 458.29"/><polygon class="cls-56" points="206.54 556.02 219.73 548.65 230.5 554.6 217.5 561.96 206.54 556.02"/><polygon class="cls-81" points="206.54 554.59 219.73 547.21 230.5 553.17 217.5 560.52 206.54 554.59"/><polygon class="cls-58" points="206.54 554.59 206.54 556.02 217.5 561.96 217.5 560.52 206.54 554.59"/><polygon class="cls-59" points="230.5 553.17 230.5 554.6 217.5 561.96 217.5 560.52 230.5 553.17"/><polygon class="cls-56" points="221.46 547.15 234.65 539.78 245.42 545.73 232.41 553.08 221.46 547.15"/><polygon class="cls-82" points="221.46 545.72 234.65 538.34 245.42 544.29 232.41 551.65 221.46 545.72"/><polygon class="cls-58" points="221.46 545.72 221.46 547.15 232.41 553.08 232.41 551.65 221.46 545.72"/><polygon class="cls-59" points="245.42 544.29 245.42 545.73 232.41 553.08 232.41 551.65 245.42 544.29"/><polygon class="cls-56" points="236.48 538.36 249.66 530.99 260.44 536.94 247.43 544.29 236.48 538.36"/><polygon class="cls-83" points="236.48 536.93 249.66 529.55 260.44 535.5 247.43 542.86 236.48 536.93"/><polygon class="cls-58" points="236.48 536.93 236.48 538.36 247.43 544.29 247.43 542.86 236.48 536.93"/><polygon class="cls-59" points="260.44 535.5 260.44 536.94 247.43 544.29 247.43 542.86 260.44 535.5"/><polygon class="cls-56" points="251.39 529.49 264.58 522.12 275.35 528.07 262.35 535.42 251.39 529.49"/><polygon class="cls-84" points="251.39 528.05 264.58 520.68 275.35 526.63 262.35 533.99 251.39 528.05"/><polygon class="cls-58" points="251.39 528.05 251.39 529.49 262.35 535.42 262.35 533.99 251.39 528.05"/><polygon class="cls-59" points="275.35 526.63 275.35 528.07 262.35 535.42 262.35 533.99 275.35 526.63"/><polygon class="cls-56" points="267.32 520.98 280.5 513.61 291.28 519.56 278.27 526.91 267.32 520.98"/><polygon class="cls-85" points="267.32 519.55 280.5 512.17 291.28 518.13 278.27 525.48 267.32 519.55"/><polygon class="cls-58" points="267.32 519.55 267.32 520.98 278.27 526.91 278.27 525.48 267.32 519.55"/><polygon class="cls-59" points="291.28 518.13 291.28 519.56 278.27 526.91 278.27 525.48 291.28 518.13"/><polygon class="cls-56" points="282.23 512.11 295.42 504.74 306.19 510.69 293.19 518.04 282.23 512.11"/><polygon class="cls-86" points="282.23 510.68 295.42 503.3 306.19 509.25 293.19 516.61 282.23 510.68"/><polygon class="cls-58" points="282.23 510.68 282.23 512.11 293.19 518.04 293.19 516.61 282.23 510.68"/><polygon class="cls-59" points="306.19 509.25 306.19 510.69 293.19 518.04 293.19 516.61 306.19 509.25"/><polygon class="cls-56" points="297.25 503.32 310.44 495.95 321.21 501.9 308.2 509.25 297.25 503.32"/><polygon class="cls-87" points="297.25 501.89 310.44 494.51 321.21 500.46 308.2 507.82 297.25 501.89"/><polygon class="cls-58" points="297.25 501.89 297.25 503.32 308.2 509.25 308.2 507.82 297.25 501.89"/><polygon class="cls-59" points="321.21 500.46 321.21 501.9 308.2 509.25 308.2 507.82 321.21 500.46"/><polygon class="cls-56" points="312.17 494.45 325.35 487.08 336.13 493.03 323.12 500.38 312.17 494.45"/><polygon class="cls-88" points="312.17 493.01 325.35 485.64 336.13 491.59 323.12 498.95 312.17 493.01"/><polygon class="cls-58" points="312.17 493.01 312.17 494.45 323.12 500.38 323.12 498.95 312.17 493.01"/><polygon class="cls-59" points="336.13 491.59 336.13 493.03 323.12 500.38 323.12 498.95 336.13 491.59"/><polygon class="cls-56" points="327.66 485.66 340.85 478.29 351.62 484.24 338.62 491.59 327.66 485.66"/><polygon class="cls-89" points="327.66 484.23 340.85 476.85 351.62 482.8 338.62 490.16 327.66 484.23"/><polygon class="cls-58" points="327.66 484.23 327.66 485.66 338.62 491.59 338.62 490.16 327.66 484.23"/><polygon class="cls-59" points="351.62 482.8 351.62 484.24 338.62 491.59 338.62 490.16 351.62 482.8"/><polygon class="cls-56" points="342.58 476.79 355.77 469.42 366.54 475.37 353.53 482.72 342.58 476.79"/><polygon class="cls-90" points="342.58 475.35 355.77 467.98 366.54 473.93 353.53 481.29 342.58 475.35"/><polygon class="cls-58" points="342.58 475.35 342.58 476.79 353.53 482.72 353.53 481.29 342.58 475.35"/><polygon class="cls-59" points="366.54 473.93 366.54 475.37 353.53 482.72 353.53 481.29 366.54 473.93"/><polygon class="cls-56" points="357.6 468.72 370.78 461.34 381.56 467.3 368.55 474.65 357.6 468.72"/><polygon class="cls-91" points="357.6 467.28 370.78 459.91 381.56 465.86 368.55 473.21 357.6 467.28"/><polygon class="cls-58" points="357.6 467.28 357.6 468.72 368.55 474.65 368.55 473.21 357.6 467.28"/><polygon class="cls-59" points="381.56 465.86 381.56 467.3 368.55 474.65 368.55 473.21 381.56 465.86"/><polygon class="cls-56" points="220.78 564.05 233.97 556.67 244.74 562.63 231.73 569.98 220.78 564.05"/><polygon class="cls-92" points="220.78 562.61 233.97 555.24 244.74 561.19 231.73 568.54 220.78 562.61"/><polygon class="cls-58" points="220.78 562.61 220.78 564.05 231.73 569.98 231.73 568.54 220.78 562.61"/><polygon class="cls-59" points="244.74 561.19 244.74 562.63 231.73 569.98 231.73 568.54 244.74 561.19"/><polygon class="cls-56" points="235.69 555.17 248.88 547.8 259.65 553.75 246.65 561.11 235.69 555.17"/><polygon class="cls-93" points="235.69 553.74 248.88 546.37 259.65 552.32 246.65 559.67 235.69 553.74"/><polygon class="cls-58" points="235.69 553.74 235.69 555.17 246.65 561.11 246.65 559.67 235.69 553.74"/><polygon class="cls-59" points="259.65 552.32 259.65 553.75 246.65 561.11 246.65 559.67 259.65 552.32"/><polygon class="cls-56" points="250.71 546.39 263.9 539.01 274.67 544.97 261.67 552.32 250.71 546.39"/><polygon class="cls-94" points="250.71 544.95 263.9 537.58 274.67 543.53 261.67 550.88 250.71 544.95"/><polygon class="cls-58" points="250.71 544.95 250.71 546.39 261.67 552.32 261.67 550.88 250.71 544.95"/><polygon class="cls-59" points="274.67 543.53 274.67 544.97 261.67 552.32 261.67 550.88 274.67 543.53"/><polygon class="cls-56" points="265.63 537.51 278.81 530.14 289.59 536.09 276.58 543.45 265.63 537.51"/><polygon class="cls-95" points="265.63 536.08 278.81 528.7 289.59 534.66 276.58 542.01 265.63 536.08"/><polygon class="cls-58" points="265.63 536.08 265.63 537.51 276.58 543.45 276.58 542.01 265.63 536.08"/><polygon class="cls-59" points="289.59 534.66 289.59 536.09 276.58 543.45 276.58 542.01 289.59 534.66"/><polygon class="cls-56" points="356.81 484.81 370 477.44 380.78 483.39 367.77 490.75 356.81 484.81"/><polygon class="cls-96" points="356.81 483.38 370 476 380.78 481.95 367.77 489.31 356.81 483.38"/><polygon class="cls-58" points="356.81 483.38 356.81 484.81 367.77 490.75 367.77 489.31 356.81 483.38"/><polygon class="cls-59" points="380.78 481.95 380.78 483.39 367.77 490.75 367.77 489.31 380.78 481.95"/><polygon class="cls-56" points="341.38 494.24 354.56 486.87 365.34 492.82 352.33 500.17 341.38 494.24"/><polygon class="cls-97" points="341.38 492.81 354.56 485.43 365.34 491.38 352.33 498.74 341.38 492.81"/><polygon class="cls-58" points="341.38 492.81 341.38 494.24 352.33 500.17 352.33 498.74 341.38 492.81"/><polygon class="cls-59" points="365.34 491.38 365.34 492.82 352.33 500.17 352.33 498.74 365.34 491.38"/><polygon class="cls-56" points="371.3 476.72 384.49 469.35 395.26 475.3 382.25 482.65 371.3 476.72"/><polygon class="cls-98" points="371.3 475.28 384.49 467.91 395.26 473.86 382.25 481.21 371.3 475.28"/><polygon class="cls-58" points="371.3 475.28 371.3 476.72 382.25 482.65 382.25 481.21 371.3 475.28"/><polygon class="cls-59" points="395.26 473.86 395.26 475.3 382.25 482.65 382.25 481.21 395.26 473.86"/><polygon class="cls-56" points="302.74 534.74 344.13 511.29 367 523.15 326 548.04 302.74 534.74"/><polygon class="cls-99" points="302.74 533.01 344.13 508.07 367 521.42 326 546.31 302.74 533.01"/><polygon class="cls-58" points="302.74 533.01 302.74 534.74 326 548.04 326 546.31 302.74 533.01"/><polygon class="cls-59" points="367 521.42 367 523.15 326 548.04 326 546.31 367 521.42"/><polygon class="cls-56" points="283.44 527.9 338.56 495.8 349.49 501.47 294.55 533.54 283.44 527.9"/><polygon class="cls-100" points="283.4 526.46 338.52 494.37 349.45 500.04 294.51 532.11 283.4 526.46"/><polygon class="cls-58" points="283.4 526.46 283.44 527.9 294.55 533.54 294.51 532.11 283.4 526.46"/><polygon class="cls-59" points="349.45 500.04 349.49 501.47 294.55 533.54 294.51 532.11 349.45 500.04"/><polygon class="cls-101" points="498.5 229.76 498.5 45.73 682.92 150.4 682.92 334.98 498.5 229.76"/><polygon class="cls-102" points="526.03 210.23 526.03 177.61 549.67 190.78 549.67 223.26 526.03 210.23"/><polygon class="cls-103" points="526.03 178.18 526.03 165.08 549.67 178.25 549.67 191.21 526.03 178.18"/><polygon class="cls-104" points="561.08 179.16 561.08 168.09 584.72 181.26 584.72 192.18 561.08 179.16"/><polygon class="cls-105" points="561.08 168.01 561.08 150.36 584.72 163.53 584.72 181.03 561.08 168.01"/><polygon class="cls-105" points="526.03 165.43 526.03 157.42 549.67 170.59 549.67 178.45 526.03 165.43"/><polygon class="cls-103" points="595.65 171.67 595.65 136.74 619.29 149.91 619.29 184.69 595.65 171.67"/><polygon class="cls-103" points="627.49 166.15 627.49 139.95 651.13 153.12 651.13 179.17 627.49 166.15"/><polygon class="cls-102" points="561.08 230.54 561.08 179.17 584.72 192.34 584.72 243.57 561.08 230.54"/><polygon class="cls-102" points="595.65 249.95 595.65 171.66 619.29 184.83 619.29 262.98 595.65 249.95"/><polygon class="cls-102" points="627.49 268.36 627.49 165.76 651.13 178.93 651.13 281.38 627.49 268.36"/><polygon class="cls-106" points="498.5 45.73 505.25 41.87 689.67 146.54 682.92 150.4 498.5 45.73"/><polygon class="cls-107" points="689.67 146.54 682.92 150.4 682.92 334.98 689.67 331.12 689.67 146.54"/><polygon class="cls-102" points="510.36 108.09 510.36 120.86 533.53 134.69 533.85 121.34 510.36 108.09"/><polygon class="cls-105" points="510.36 71.43 510.36 84.2 533.53 98.03 533.85 84.68 510.36 71.43"/><polygon class="cls-103" points="510.36 90.87 510.36 103.64 533.53 117.47 533.85 104.12 510.36 90.87"/><polygon class="cls-108" points="536.07 122.35 536.07 128.4 567.39 146.1 567.54 139.77 536.07 122.35"/><polygon class="cls-108" points="536.07 88.48 536.07 94.53 567.39 112.23 567.54 105.9 536.07 88.48"/><polygon class="cls-108" points="536.07 105.82 536.07 111.88 567.39 129.57 567.54 123.25 536.07 105.82"/><polygon class="cls-51" points="345.79 36.37 345.79 36.37 345.79 36.37 345.79 36.37"/><path class="cls-51" d="M.39,515h0l-.11-.06Z"/><path class="cls-109" d="M.28,514.94,0,514.77Z"/><path class="cls-109" d="M344.49,35.63l1.3.74C345.37,36.1,344.94,35.85,344.49,35.63Z"/><path class="cls-110" d="M378.6,3.15A15.13,15.13,0,0,0,374.89,1h0a14.71,14.71,0,0,0-7.24-.93A9.12,9.12,0,0,0,364,1h0a15.38,15.38,0,0,0-1.91.92L350.73,8.46l-.07,0h0L45.38,180.82,55.9,187,372.7,8.13a14.69,14.69,0,0,1,14-.39Z"/><path class="cls-111" d="M50.41,190.2a31.67,31.67,0,0,0-16,27.59L35,448.87l359.8-204.15L395,21a14.69,14.69,0,0,0-6.93-12.57h0l-1.3-.74a14.69,14.69,0,0,0-14,.39L56,187h0Z"/><path class="cls-112" d="M35,448.87l.06,25.3a14.7,14.7,0,0,0,7.25,12.72l.28.16.11.06a14.7,14.7,0,0,0,14.6-.09l330-187.28a14.85,14.85,0,0,0,7.46-12.87l0-42.15Z"/><path class="cls-113" d="M35,474.17,35,448.87l-.2.12-10.38-6,.06,25a14.67,14.67,0,0,0,6.38,12.16h0a15.13,15.13,0,0,0,2,1.16l9.48,5.57A14.7,14.7,0,0,1,35,474.17Z"/><path class="cls-114" d="M35,448.87l-.54-231.08a31.67,31.67,0,0,1,16-27.59L56,187l-10.52-6.2L39.83,184a31.67,31.67,0,0,0-16,27.59L24.38,443l10.38,6Z"/><polygon class="cls-51" points="55.98 187.02 55.98 187.02 50.41 190.2 55.98 187.02"/><path class="cls-50" d="M377,423s6.14,15.25,14.07,22,40.78,23.8,60,23.33,34.94-16.8,34.29-22.65S399,415.37,377,423Z"/><path class="cls-115" d="M377,423s52.55,33.89,63.2,35.52S399.85,414.07,377,423Z"/><path class="cls-116" d="M440.15,458.54s-47.54-33.49-59.81-34.25,4-22.54,22.67-22.28c14.66.2,73.72,21.37,80.94,32S460.1,466.36,440.15,458.54Z"/><polygon class="cls-117" points="455.05 296.7 482.79 313.31 510.88 297.18 483.14 280.56 455.05 296.7"/><polygon class="cls-118" points="455.05 296.7 482.79 313.31 482.79 406.82 455.05 390.2 455.05 296.7"/><polygon class="cls-119" points="510.88 390.68 482.79 406.82 482.79 313.31 510.88 297.18 510.88 390.68"/><polygon class="cls-120" points="519.13 360.22 546.87 376.84 574.97 360.7 547.23 344.08 519.13 360.22"/><polygon class="cls-121" points="519.13 360.22 546.87 376.84 546.87 443.59 519.13 426.97 519.13 360.22"/><polygon class="cls-122" points="574.97 427.45 546.87 443.59 546.87 376.84 574.97 360.7 574.97 427.45"/><polygon class="cls-123" points="582.14 440.56 609.88 457.17 637.98 441.03 610.24 424.42 582.14 440.56"/><polygon class="cls-124" points="582.14 440.56 609.88 457.17 609.88 479.66 582.14 463.04 582.14 440.56"/><polygon class="cls-125" points="637.98 463.52 609.88 479.66 609.88 457.17 637.98 441.03 637.98 463.52"/><polygon class="cls-126" points="642.42 433.55 606.95 410.81 606.89 410.69 586.72 372.47 586.71 372.37 584.77 356.33 529.15 315.67 516.98 286.27 476.02 262.18 476.54 261.3 517.79 285.56 517.86 285.72 529.98 315.01 585.73 355.77 587.71 372.16 607.73 410.1 642.97 432.69 642.42 433.55"/><circle class="cls-127" cx="476.28" cy="261.74" r="2.08"/><circle class="cls-128" cx="517.2" cy="285.83" r="2.08"/><circle class="cls-129" cx="529.25" cy="315.34" r="2.08"/><circle class="cls-130" cx="585.4" cy="356.54" r="2.08"/><circle class="cls-131" cx="607.8" cy="410.92" r="2.08"/><circle class="cls-132" cx="642.7" cy="433.12" r="2.08"/><polygon class="cls-133" points="97.08 257.87 331.59 122.93 331.65 150.78 97.08 285.68 97.08 257.87"/><path class="cls-134" d="M388.86,334.81a69.69,69.69,0,0,1-35.64-60.72l-.09-68a29.5,29.5,0,0,0-14.91-25.58L297.75,159,123.91,255.61l43.25,22.45A29.5,29.5,0,0,1,182,303.66v68.1a69.69,69.69,0,0,0,34.78,60.32l1.78,1,170.29-98.3Z"/><path class="cls-135" d="M234.6,411.93a.49.49,0,0,1-.32-.12.51.51,0,0,1-.09-.72.55.55,0,0,1,.42-.2,10.61,10.61,0,0,0,1.16-.53.51.51,0,1,1,.45.92A5,5,0,0,1,234.6,411.93Z"/><path class="cls-135" d="M238.74,409.91a.51.51,0,0,1-.24-1l2.73-1.48a.51.51,0,1,1,.49.9L239,409.85A.51.51,0,0,1,238.74,409.91Zm5.46-3a.51.51,0,0,1-.25-1l2.71-1.51a.51.51,0,0,1,.5.89l-2.72,1.51A.5.5,0,0,1,244.2,406.93Zm5.43-3a.51.51,0,0,1-.25-1l2.71-1.52a.51.51,0,1,1,.5.89l-2.71,1.52A.51.51,0,0,1,249.63,403.91Zm5.41-3a.51.51,0,0,1-.25-1l2.7-1.53a.51.51,0,0,1,.5.89l-2.7,1.53A.51.51,0,0,1,255,400.87Zm5.4-3.06a.51.51,0,0,1-.25-1l2.7-1.53a.51.51,0,0,1,.5.89l-2.7,1.53A.5.5,0,0,1,260.45,397.81Zm5.4-3.06a.51.51,0,0,1-.25-1l2.7-1.53a.51.51,0,0,1,.51.89l-2.7,1.53A.51.51,0,0,1,265.84,394.74Zm5.39-3.07a.51.51,0,0,1-.25-1l2.69-1.54a.51.51,0,0,1,.51.89l-2.69,1.54A.52.52,0,0,1,271.23,391.67Zm5.39-3.08a.51.51,0,0,1-.25-1l2.69-1.54a.51.51,0,1,1,.51.89l-2.69,1.54A.51.51,0,0,1,276.62,388.59Zm5.38-3.08a.51.51,0,0,1-.25-1l2.69-1.54a.51.51,0,1,1,.51.89l-2.69,1.54A.51.51,0,0,1,282,385.51Zm5.38-3.09a.51.51,0,0,1-.25-1l2.69-1.54a.51.51,0,1,1,.51.89l-2.69,1.54A.51.51,0,0,1,287.39,382.42Zm5.37-3.08a.51.51,0,0,1-.25-1l2.69-1.54a.51.51,0,1,1,.51.89L293,379.27A.51.51,0,0,1,292.76,379.34Zm5.38-3.09a.51.51,0,0,1-.26-1l2.7-1.55a.51.51,0,0,1,.51.89l-2.7,1.55A.51.51,0,0,1,298.13,376.25Zm5.38-3.1a.51.51,0,0,1-.26-1l2.69-1.55a.51.51,0,0,1,.51.89l-2.69,1.55A.51.51,0,0,1,303.52,373.15Zm5.38-3.1a.51.51,0,0,1-.26-1l2.69-1.55a.51.51,0,0,1,.51.89L309.15,370A.51.51,0,0,1,308.89,370.05Zm5.37-3.1a.51.51,0,0,1-.26-1l2.69-1.55a.51.51,0,0,1,.51.88l-2.69,1.55A.51.51,0,0,1,314.27,367Zm5.37-3.1a.51.51,0,0,1-.26-1l2.69-1.55a.51.51,0,0,1,.51.88l-2.69,1.55A.5.5,0,0,1,319.64,363.85Zm5.37-3.1a.51.51,0,0,1-.26-1l2.69-1.55a.51.51,0,1,1,.51.88l-2.69,1.55A.5.5,0,0,1,325,360.75Zm5.37-3.11a.51.51,0,0,1-.26-1l2.69-1.55a.51.51,0,0,1,.51.88l-2.69,1.55A.51.51,0,0,1,330.38,357.64Zm5.37-3.11a.51.51,0,0,1-.26-1l2.69-1.55a.51.51,0,0,1,.51.88L336,354.47A.51.51,0,0,1,335.75,354.54Zm5.37-3.11a.51.51,0,0,1-.26-1l2.68-1.56a.51.51,0,0,1,.51.88l-2.68,1.56A.51.51,0,0,1,341.12,351.43Zm5.37-3.11a.51.51,0,0,1-.26-1l2.69-1.56a.51.51,0,0,1,.51.88l-2.69,1.56A.51.51,0,0,1,346.5,348.31Zm5.37-3.11a.51.51,0,0,1-.26-1l2.69-1.56a.51.51,0,1,1,.51.88l-2.69,1.56A.51.51,0,0,1,351.87,345.2Zm5.38-3.12a.51.51,0,0,1-.26-1l2.69-1.56a.51.51,0,0,1,.51.88L357.5,342A.51.51,0,0,1,357.25,342.08Z"/><path class="cls-135" d="M362.42,339.08a.51.51,0,0,1-.26-1l1.32-.77a.51.51,0,1,1,.51.88l-1.32.77A.51.51,0,0,1,362.42,339.08Z"/><polygon class="cls-135" points="330.84 200.31 332.44 201.27 207 273.45 205.41 272.54 330.84 200.31"/><polygon class="cls-135" points="326.93 197.31 328.54 198.27 203.1 270.45 201.51 269.54 326.93 197.31"/><polygon class="cls-135" points="335.58 203.63 336.87 205.26 299.78 226.78 297.87 225.56 335.58 203.63"/><polygon class="cls-135" points="339.21 207.56 339.19 209.72 301.47 231.61 301.51 229.49 339.21 207.56"/><path class="cls-135" d="M208.95,288.68a.49.49,0,0,1-.32-.12.51.51,0,0,1-.09-.72.56.56,0,0,1,.42-.2,10.37,10.37,0,0,0,1.16-.53.51.51,0,0,1,.45.92A5,5,0,0,1,208.95,288.68Z"/><path class="cls-135" d="M213.09,286.66a.51.51,0,0,1-.24-1l2.73-1.48a.51.51,0,1,1,.49.9l-2.74,1.48A.51.51,0,0,1,213.09,286.66Zm5.46-3a.51.51,0,0,1-.25-1l2.72-1.51a.51.51,0,1,1,.5.89l-2.72,1.51A.51.51,0,0,1,218.55,283.69Zm5.43-3a.51.51,0,0,1-.25-1l2.71-1.52a.51.51,0,0,1,.5.89l-2.71,1.52A.51.51,0,0,1,224,280.66Zm5.41-3a.51.51,0,0,1-.25-1l2.7-1.53a.51.51,0,1,1,.5.89l-2.7,1.53A.51.51,0,0,1,229.39,277.62Zm5.4-3.06a.51.51,0,0,1-.25-1l2.7-1.53a.51.51,0,1,1,.5.89L235,274.5A.51.51,0,0,1,234.79,274.56Zm5.4-3.06a.51.51,0,0,1-.25-1l2.7-1.54a.51.51,0,0,1,.51.89l-2.7,1.54A.51.51,0,0,1,240.19,271.5Zm5.39-3.07a.51.51,0,0,1-.25-1l2.69-1.54a.51.51,0,0,1,.51.89l-2.69,1.54A.5.5,0,0,1,245.58,268.43Zm5.39-3.08a.51.51,0,0,1-.25-1l2.69-1.54a.51.51,0,1,1,.51.89l-2.69,1.54A.51.51,0,0,1,251,265.35Zm5.38-3.08a.51.51,0,0,1-.25-1l2.69-1.54a.51.51,0,1,1,.51.89l-2.69,1.54A.51.51,0,0,1,256.35,262.27Zm5.38-3.09a.51.51,0,0,1-.26-1l2.69-1.54a.51.51,0,0,1,.51.89L262,259.11A.51.51,0,0,1,261.73,259.18Zm5.37-3.08a.51.51,0,0,1-.25-1l2.69-1.54a.51.51,0,0,1,.51.89L267.36,256A.51.51,0,0,1,267.1,256.1Zm5.38-3.09a.51.51,0,0,1-.26-1l2.7-1.55a.51.51,0,0,1,.51.89l-2.7,1.55A.51.51,0,0,1,272.48,253Zm5.38-3.1a.51.51,0,0,1-.26-1l2.69-1.55a.51.51,0,1,1,.51.89l-2.69,1.55A.51.51,0,0,1,277.86,249.91Zm5.38-3.1a.51.51,0,0,1-.26-1l2.69-1.55a.51.51,0,0,1,.51.89l-2.69,1.55A.51.51,0,0,1,283.24,246.81Zm5.37-3.1a.51.51,0,0,1-.26-1L291,241.2a.51.51,0,0,1,.51.89l-2.69,1.55A.51.51,0,0,1,288.61,243.71Zm5.37-3.1a.51.51,0,0,1-.26-1l2.69-1.55a.51.51,0,0,1,.51.89l-2.69,1.55A.51.51,0,0,1,294,240.61Zm5.37-3.1a.51.51,0,0,1-.26-1l2.69-1.55a.51.51,0,0,1,.51.88l-2.69,1.55A.51.51,0,0,1,299.35,237.5Zm5.37-3.11a.51.51,0,0,1-.26-1l2.69-1.55a.51.51,0,0,1,.51.88L305,234.33A.51.51,0,0,1,304.73,234.4Zm5.37-3.11a.51.51,0,0,1-.26-1l2.69-1.55a.51.51,0,1,1,.51.88l-2.69,1.55A.51.51,0,0,1,310.1,231.29Zm5.37-3.11a.51.51,0,0,1-.26-1l2.69-1.56a.51.51,0,0,1,.51.88l-2.69,1.56A.51.51,0,0,1,315.47,228.18Zm5.37-3.11a.51.51,0,0,1-.26-1l2.69-1.56a.51.51,0,0,1,.51.88L321.1,225A.51.51,0,0,1,320.84,225.07Zm5.37-3.11a.51.51,0,0,1-.26-1l2.69-1.56a.51.51,0,0,1,.51.88l-2.69,1.56A.51.51,0,0,1,326.21,222Zm5.38-3.12a.51.51,0,0,1-.26-1l2.69-1.56a.51.51,0,1,1,.51.88l-2.69,1.56A.51.51,0,0,1,331.59,218.84Z"/><path class="cls-135" d="M336.76,215.83a.51.51,0,0,1-.26-1l1.32-.77a.51.51,0,1,1,.51.88l-1.32.77A.51.51,0,0,1,336.76,215.83Z"/><path class="cls-135" d="M193.39,268.27a.51.51,0,0,1-.25-1l1.33-.75a.51.51,0,1,1,.51.89l-1.33.76A.51.51,0,0,1,193.39,268.27Z"/><path class="cls-135" d="M197.43,266a.51.51,0,0,1-.25-1l2.73-1.55a.51.51,0,0,1,.5.89l-2.73,1.55A.51.51,0,0,1,197.43,266Zm5.46-3.11a.51.51,0,0,1-.25-1l2.73-1.55a.51.51,0,1,1,.51.89l-2.73,1.55A.51.51,0,0,1,202.89,262.86Zm5.45-3.1a.51.51,0,0,1-.25-1l2.72-1.55a.51.51,0,0,1,.51.89l-2.72,1.55A.51.51,0,0,1,208.35,259.76Zm5.45-3.1a.51.51,0,0,1-.25-1l2.72-1.55a.51.51,0,1,1,.51.89L214,256.59A.51.51,0,0,1,213.8,256.66Zm5.45-3.1a.51.51,0,0,1-.25-1l2.72-1.55a.51.51,0,0,1,.51.89l-2.72,1.55A.51.51,0,0,1,219.25,253.55Zm5.45-3.1a.51.51,0,0,1-.25-1l2.72-1.55a.51.51,0,1,1,.51.89l-2.72,1.55A.51.51,0,0,1,224.69,250.45Zm5.45-3.1a.51.51,0,0,1-.25-1l2.72-1.55a.51.51,0,0,1,.51.89l-2.72,1.55A.51.51,0,0,1,230.14,247.35Zm5.45-3.1a.51.51,0,0,1-.25-1l2.72-1.55a.51.51,0,0,1,.51.89l-2.72,1.55A.51.51,0,0,1,235.58,244.25Zm5.44-3.1a.51.51,0,0,1-.25-1l2.72-1.55a.51.51,0,1,1,.51.89l-2.72,1.55A.51.51,0,0,1,241,241.15Zm5.44-3.1a.51.51,0,0,1-.25-1l2.72-1.55a.51.51,0,0,1,.51.89L246.72,238A.51.51,0,0,1,246.47,238Zm5.44-3.1a.51.51,0,0,1-.25-1l2.72-1.55a.51.51,0,1,1,.51.89l-2.72,1.55A.51.51,0,0,1,251.91,235Zm5.44-3.1a.51.51,0,0,1-.25-1l2.73-1.55a.51.51,0,0,1,.5.89l-2.73,1.55A.51.51,0,0,1,257.35,231.85Zm5.45-3.1a.51.51,0,0,1-.25-1l2.72-1.55a.51.51,0,0,1,.51.89l-2.72,1.55A.51.51,0,0,1,262.8,228.75Zm5.44-3.1a.51.51,0,0,1-.25-1l2.72-1.55a.51.51,0,0,1,.51.89l-2.72,1.55A.51.51,0,0,1,268.25,225.65Zm5.44-3.1a.51.51,0,0,1-.25-1l2.72-1.55a.51.51,0,0,1,.51.89l-2.72,1.55A.51.51,0,0,1,273.69,222.54Zm5.44-3.1a.51.51,0,0,1-.25-1l2.72-1.55a.51.51,0,1,1,.51.89l-2.72,1.55A.51.51,0,0,1,279.14,219.44Zm5.44-3.1a.51.51,0,0,1-.25-1l2.72-1.55a.51.51,0,0,1,.51.89l-2.72,1.55A.51.51,0,0,1,284.58,216.34Zm5.45-3.1a.51.51,0,0,1-.25-1l2.72-1.55a.51.51,0,0,1,.51.89l-2.72,1.55A.51.51,0,0,1,290,213.24Zm5.45-3.1a.51.51,0,0,1-.25-1l2.72-1.55a.51.51,0,0,1,.51.89l-2.72,1.55A.51.51,0,0,1,295.47,210.14Zm5.45-3.1a.51.51,0,0,1-.25-1l2.72-1.55a.51.51,0,1,1,.51.89L301.17,207A.51.51,0,0,1,300.92,207Zm5.77-3.21-.32-.41-.19-.48,2.66-1.51a.51.51,0,1,1,.5.89Zm-.32-.41h0Zm5.45-2.59a.51.51,0,0,1-.25-1l2.73-1.55a.51.51,0,1,1,.51.89l-2.73,1.55A.51.51,0,0,1,311.82,200.83Zm5.46-3.11a.51.51,0,0,1-.25-1l2.73-1.56a.51.51,0,1,1,.51.89l-2.73,1.56A.51.51,0,0,1,317.27,197.72Z"/><path class="cls-135" d="M322.52,194.73a.51.51,0,0,1-.25-1l1.33-.76a.51.51,0,1,1,.51.89l-1.33.76A.51.51,0,0,1,322.52,194.73Z"/><path class="cls-136" d="M214.48,246.55l-27.26-14.87,2.56-1.42L217,245.14Z"/><path class="cls-136" d="M204.88,232.67l17.47,9.53-2.56,1.42-27.26-14.87,2-1.1,24.76,6-17.85-9.74,2.56-1.42L231.2,237.3l-2.08,1.15Z"/><path class="cls-136" d="M208,220.16l24.18,9.27-17.09-13.2,2.69-1.49,22.12,17.71-2.15,1.19-32.44-12Z"/><path class="cls-136" d="M251.83,226.1a7.91,7.91,0,0,1-3.8.81,24.18,24.18,0,0,1-5.13-.58,40.42,40.42,0,0,1-5.74-1.69,43.06,43.06,0,0,1-5.57-2.53,30.89,30.89,0,0,1-4.73-3.12,16,16,0,0,1-3.06-3.16,4.67,4.67,0,0,1-1-2.8,2.43,2.43,0,0,1,1.45-2,7.84,7.84,0,0,1,3.82-.78,24.94,24.94,0,0,1,5.18.61,41.88,41.88,0,0,1,5.75,1.71,42.77,42.77,0,0,1,5.53,2.51,31.19,31.19,0,0,1,4.72,3.1,15.75,15.75,0,0,1,3,3.13,4.63,4.63,0,0,1,1,2.78A2.43,2.43,0,0,1,251.83,226.1Zm-17.65-5.42a33.12,33.12,0,0,0,3.68,1.72,27,27,0,0,0,3.67,1.18,15.07,15.07,0,0,0,3.24.44,4.77,4.77,0,0,0,2.39-.48,1.37,1.37,0,0,0,.86-1.34,3.44,3.44,0,0,0-.89-1.81,12.61,12.61,0,0,0-2.2-2,25.88,25.88,0,0,0-3.07-1.95,32.25,32.25,0,0,0-3.69-1.71,27.84,27.84,0,0,0-3.68-1.17,14.55,14.55,0,0,0-3.22-.43,4.77,4.77,0,0,0-2.35.48,1.39,1.39,0,0,0-.86,1.34,3.33,3.33,0,0,0,.87,1.8,12.64,12.64,0,0,0,2.19,2A25.9,25.9,0,0,0,234.18,220.68Z"/><path class="cls-136" d="M260,221.34l-27.26-14.87,2.56-1.42,27.26,14.87Z"/><path class="cls-136" d="M250.73,211.31a32.35,32.35,0,0,1-4.5-2.93,15.7,15.7,0,0,1-3.09-3.08,4.83,4.83,0,0,1-1.07-2.83,2.53,2.53,0,0,1,1.56-2.17,8.85,8.85,0,0,1,4.8-.84,24.5,24.5,0,0,1,6.28,1.25l.84,2.62a19.33,19.33,0,0,0-2.57-.71,12.05,12.05,0,0,0-2-.24,7.12,7.12,0,0,0-1.56.13,4,4,0,0,0-1.12.39,1.37,1.37,0,0,0-.87,1.37,3.49,3.49,0,0,0,.9,1.8,12.84,12.84,0,0,0,2.2,2,26.33,26.33,0,0,0,3,1.9,32.1,32.1,0,0,0,3.75,1.74,27.09,27.09,0,0,0,3.73,1.17,15.76,15.76,0,0,0,3.26.43,4.69,4.69,0,0,0,2.34-.45,1.91,1.91,0,0,0,.7-.64,1.33,1.33,0,0,0,.19-.91,2.79,2.79,0,0,0-.48-1.15,6.41,6.41,0,0,0-1.31-1.37l4.59.2a8.26,8.26,0,0,1,1.81,2,4.22,4.22,0,0,1,.66,1.81,2.51,2.51,0,0,1-.34,1.54,3.14,3.14,0,0,1-1.21,1.13,7.72,7.72,0,0,1-3.81.76,26,26,0,0,1-5.22-.63,44.59,44.59,0,0,1-11.41-4.25Z"/><path class="cls-136" d="M282.58,203.76l4.65,2.53-9.15,5.06-27.26-14.87,9-5,4.65,2.53L258,197.61l6.57,3.58,5.55-3.07,4.3,2.35-5.55,3.07,7.1,3.87Z"/><polygon class="cls-137" points="335.24 314.82 290.71 340.81 290.71 338.26 335.24 312.26 335.24 314.82"/><polygon class="cls-137" points="335.24 309.1 290.71 335.1 290.71 332.54 335.24 306.55 335.24 309.1"/><polygon class="cls-137" points="325.59 325.78 300.36 340.51 300.36 337.95 325.59 323.22 325.59 325.78"/><polygon class="cls-136" points="354.6 336.94 317.07 359.75 302.35 347.03 339.88 324.22 354.6 336.94"/><path class="cls-134" d="M318.28,345.38a3.44,3.44,0,0,0-.49,0,5.26,5.26,0,0,0-.73,0,5.44,5.44,0,0,0-.81.14,2.62,2.62,0,0,0-.72.3q-.56.34-.59.73a1,1,0,0,0,.44.79,1.59,1.59,0,0,0,.55.32,1.91,1.91,0,0,0,.61.09,3.8,3.8,0,0,0,.74-.09l.93-.22q.69-.17,1.3-.25a4.46,4.46,0,0,1,1.2,0,4,4,0,0,1,1.15.33,4.93,4.93,0,0,1,1.17.78,4,4,0,0,1,1,1.16,1.83,1.83,0,0,1,.23,1,1.71,1.71,0,0,1-.39.89,3.24,3.24,0,0,1-.85.72,5.75,5.75,0,0,1-1.86.7,7.94,7.94,0,0,1-2.22.13l-.85-1.63a3.84,3.84,0,0,0,.61.05,8.32,8.32,0,0,0,.9,0,6,6,0,0,0,1-.17,3.32,3.32,0,0,0,.92-.38q1.13-.69.24-1.46a1.57,1.57,0,0,0-.61-.33,2.24,2.24,0,0,0-.71-.07,5.14,5.14,0,0,0-.84.12l-1,.23a9,9,0,0,1-1.25.21,4.3,4.3,0,0,1-1.1,0,3.66,3.66,0,0,1-1-.32,4.62,4.62,0,0,1-1-.67,4.36,4.36,0,0,1-1-1.14,2.13,2.13,0,0,1-.31-1.07,1.75,1.75,0,0,1,.3-.95,2.56,2.56,0,0,1,.82-.76,4.34,4.34,0,0,1,1.66-.58,8.58,8.58,0,0,1,1.77-.08Z"/><path class="cls-134" d="M330,345.52l1.48,1.28-4.89,3-8.68-7.5,4.8-2.92,1.48,1.28-3.43,2.08,2.09,1.81,3-1.8,1.37,1.18-3,1.8,2.26,2Z"/><path class="cls-134" d="M328.33,340.51l5.56,4.81-1.37.83-8.68-7.5,1.06-.64,9.36,2.7-5.69-4.91L330,335l8.67,7.49-1.11.67Z"/><path class="cls-134" d="M340.09,341.55l-8.68-7.5,2.56-1.55a4.36,4.36,0,0,1,1.85-.62,6.09,6.09,0,0,1,2,.14,8.18,8.18,0,0,1,2,.79,10.84,10.84,0,0,1,1.9,1.32,8.56,8.56,0,0,1,1.55,1.7,4,4,0,0,1,.67,1.61,2.36,2.36,0,0,1-.22,1.43,2.85,2.85,0,0,1-1.12,1.14Zm.3-6.59a7.7,7.7,0,0,0-1.29-.91,5.49,5.49,0,0,0-1.31-.53,3.61,3.61,0,0,0-1.25-.11,2.56,2.56,0,0,0-1.1.36l-1.19.72,5.72,4.95,1.19-.72a1.56,1.56,0,0,0,.68-.74,1.47,1.47,0,0,0,0-.92,3.06,3.06,0,0,0-.51-1A6.24,6.24,0,0,0,340.39,335Z"/><polygon class="cls-135" points="250.14 347.96 205.71 374.15 205.71 295.31 250.14 269.12 250.14 347.96"/><polygon class="cls-137" points="245.35 297.36 212.59 316.67 212.59 314.12 245.35 294.81 245.35 297.36"/><polygon class="cls-137" points="245.35 304.07 209.47 325.22 209.47 322.67 245.35 301.51 245.35 304.07"/><polygon class="cls-137" points="245.35 310.77 209.47 331.93 209.47 329.38 245.35 308.22 245.35 310.77"/><polygon class="cls-137" points="245.35 317.48 209.47 338.63 209.47 336.08 245.35 314.92 245.35 317.48"/><polygon class="cls-137" points="245.35 324.18 209.47 345.34 209.47 342.79 245.35 321.63 245.35 324.18"/><polygon class="cls-137" points="245.35 330.89 209.47 352.05 209.47 349.49 245.35 328.33 245.35 330.89"/><polygon class="cls-137" points="245.35 341.59 233.95 348.32 233.95 345.76 245.35 339.04 245.35 341.59"/><polygon class="cls-136" points="250.14 284.74 205.71 310.94 205.71 295.31 250.14 269.12 250.14 284.74"/><polygon class="cls-135" points="297.87 319.82 253.44 346.01 253.44 267.18 297.87 240.98 297.87 319.82"/><polygon class="cls-137" points="293.09 269.22 260.33 288.53 260.33 285.98 293.09 266.67 293.09 269.22"/><polygon class="cls-137" points="293.09 275.93 257.2 297.08 257.2 294.53 293.09 273.37 293.09 275.93"/><polygon class="cls-137" points="293.09 282.63 257.2 303.79 257.2 301.23 293.09 280.08 293.09 282.63"/><polygon class="cls-137" points="293.09 289.34 257.2 310.49 257.2 307.94 293.09 286.78 293.09 289.34"/><polygon class="cls-137" points="293.09 296.04 257.2 317.2 257.2 314.65 293.09 293.49 293.09 296.04"/><polygon class="cls-137" points="293.09 302.75 257.2 323.9 257.2 321.35 293.09 300.19 293.09 302.75"/><polygon class="cls-137" points="293.09 313.45 281.68 320.18 281.68 317.62 293.09 310.9 293.09 313.45"/><polygon class="cls-136" points="297.87 256.6 253.44 282.8 253.44 267.18 297.87 240.98 297.87 256.6"/><polygon class="cls-135" points="345.61 291.68 301.17 317.87 301.17 239.03 345.61 212.84 345.61 291.68"/><polygon class="cls-137" points="340.82 241.08 308.06 260.39 308.06 257.84 340.82 238.53 340.82 241.08"/><polygon class="cls-137" points="340.82 247.78 304.93 268.94 304.93 266.39 340.82 245.23 340.82 247.78"/><polygon class="cls-137" points="340.82 254.49 304.93 275.65 304.93 273.09 340.82 251.94 340.82 254.49"/><polygon class="cls-137" points="340.82 261.2 304.93 282.35 304.93 279.8 340.82 258.64 340.82 261.2"/><polygon class="cls-137" points="340.82 267.9 304.93 289.06 304.93 286.51 340.82 265.35 340.82 267.9"/><polygon class="cls-137" points="340.82 274.61 304.93 295.76 304.93 293.21 340.82 272.06 340.82 274.61"/><polygon class="cls-137" points="340.82 285.31 329.41 292.04 329.41 289.48 340.82 282.76 340.82 285.31"/><polygon class="cls-136" points="345.61 228.46 301.17 254.66 301.17 239.03 345.61 212.84 345.61 228.46"/><g class="cls-138"><path class="cls-139" d="M145.17,590.95l-.24.14.24-.14-17.71-27L37.25,615.13l-.51,11.43,18.43,26.35,90,49.57,98.05-56.41-7.5-3.46Z"/></g><path class="cls-140" d="M56.86,632.3l90-51.8,90.55,51.66-90.14,51.35Z"/><path class="cls-141" d="M71.08,632.72c.44-.29,16.09-8.92,16.09-8.92l12.58,6.48-16.3,9.35Z"/><path class="cls-142" d="M71.08,631.63c.44-.29,16.09-8.92,16.09-8.92l12.58,6.47-16.3,9.35Z"/><polygon class="cls-141" points="71.08 631.63 71.08 632.72 83.45 639.63 83.45 638.54 71.08 631.63"/><polygon class="cls-143" points="99.75 629.19 99.75 630.28 83.45 639.63 83.45 638.54 99.75 629.19"/><path class="cls-144" d="M90.42,620.31c.44-.29,16.09-8.92,16.09-8.92l12.58,6.47-16.3,9.35Z"/><polygon class="cls-141" points="90.42 620.31 90.42 621.4 102.78 628.31 102.78 627.22 90.42 620.31"/><polygon class="cls-143" points="119.09 617.87 119.09 618.96 102.78 628.31 102.78 627.22 119.09 617.87"/><path class="cls-145" d="M109.3,609.2c.44-.29,16.09-8.92,16.09-8.92L138,606.76l-16.3,9.35Z"/><polygon class="cls-141" points="109.3 609.2 109.3 610.29 121.67 617.2 121.67 616.11 109.3 609.2"/><polygon class="cls-143" points="137.97 606.76 137.97 607.85 121.67 617.2 121.67 616.11 137.97 606.76"/><path class="cls-146" d="M129.48,597.78c.44-.29,16.09-8.92,16.09-8.92l12.58,6.48-16.3,9.35Z"/><polygon class="cls-141" points="129.48 597.78 129.48 598.87 141.84 605.78 141.84 604.69 129.48 597.78"/><polygon class="cls-143" points="158.15 595.34 158.15 596.43 141.84 605.78 141.84 604.69 158.15 595.34"/><path class="cls-147" d="M86.68,640.55c.44-.29,16.09-8.92,16.09-8.92l12.58,6.47L99,647.46Z"/><polygon class="cls-141" points="86.68 640.55 86.68 641.64 99.04 648.55 99.04 647.46 86.68 640.55"/><polygon class="cls-143" points="115.35 638.11 115.35 639.2 99.04 648.55 99.04 647.46 115.35 638.11"/><path class="cls-148" d="M106,629.23c.44-.29,16.09-8.92,16.09-8.92l12.58,6.47-16.3,9.35Z"/><polygon class="cls-141" points="106.01 629.23 106.01 630.32 118.38 637.23 118.38 636.14 106.01 629.23"/><polygon class="cls-143" points="134.68 626.78 134.68 627.88 118.38 637.23 118.38 636.14 134.68 626.78"/><path class="cls-149" d="M124.9,618.12c.44-.29,16.09-8.92,16.09-8.92l12.58,6.47L137.26,625Z"/><polygon class="cls-141" points="124.9 618.12 124.9 619.21 137.26 626.12 137.26 625.03 124.9 618.12"/><polygon class="cls-143" points="153.57 615.68 153.57 616.77 137.26 626.12 137.26 625.03 153.57 615.68"/><path class="cls-150" d="M162.1,615.51c.44-.29,16.09-8.92,16.09-8.92l46.33,25-16.3,9.35Z"/><polygon class="cls-141" points="162.1 615.51 162.1 616.61 208.22 642.02 208.22 640.93 162.1 615.51"/><polygon class="cls-143" points="224.52 631.58 224.52 632.67 208.22 642.02 208.22 640.93 224.52 631.58"/><path class="cls-151" d="M102.74,649.78c.44-.29,16.09-8.92,16.09-8.92l12.58,6.47-16.3,9.35Z"/><polygon class="cls-141" points="102.73 649.78 102.73 650.87 115.1 657.78 115.1 656.69 102.73 649.78"/><polygon class="cls-143" points="131.4 647.34 131.4 648.43 115.1 657.78 115.1 656.69 131.4 647.34"/><path class="cls-152" d="M122.07,638.46c.44-.29,16.09-8.92,16.09-8.92L150.74,636l-16.3,9.35Z"/><polygon class="cls-141" points="122.07 638.46 122.07 639.55 134.43 646.46 134.43 645.37 122.07 638.46"/><polygon class="cls-143" points="150.74 636.02 150.74 637.11 134.43 646.46 134.43 645.37 150.74 636.02"/><path class="cls-153" d="M141,627.35c.44-.29,16.09-8.92,16.09-8.92l12.58,6.47-16.3,9.35Z"/><polygon class="cls-141" points="140.95 627.35 140.95 628.44 153.32 635.35 153.32 634.26 140.95 627.35"/><polygon class="cls-143" points="169.62 624.91 169.62 626 153.32 635.35 153.32 634.26 169.62 624.91"/><path class="cls-154" d="M119.09,658.13c.44-.29,16.09-8.92,16.09-8.92l12.58,6.47L131.45,665Z"/><polygon class="cls-141" points="119.09 658.13 119.09 659.22 131.45 666.13 131.45 665.04 119.09 658.13"/><polygon class="cls-143" points="147.75 655.69 147.75 656.78 131.45 666.13 131.45 665.04 147.75 655.69"/><path class="cls-155" d="M138.42,646.81c.44-.29,16.09-8.92,16.09-8.92l12.58,6.47-16.3,9.35Z"/><polygon class="cls-141" points="138.42 646.81 138.42 647.9 150.78 654.81 150.78 653.72 138.42 646.81"/><polygon class="cls-143" points="167.09 644.37 167.09 645.46 150.78 654.81 150.78 653.72 167.09 644.37"/><path class="cls-156" d="M157.3,635.7c.44-.29,16.09-8.92,16.09-8.92L186,633.26l-16.3,9.35Z"/><polygon class="cls-141" points="157.31 635.7 157.31 636.79 169.67 643.7 169.67 642.61 157.31 635.7"/><polygon class="cls-143" points="185.97 633.26 185.97 634.35 169.67 643.7 169.67 642.61 185.97 633.26"/><path class="cls-157" d="M136.23,668.8c.44-.29,16.09-8.92,16.09-8.92l12.58,6.48-16.3,9.35Z"/><polygon class="cls-141" points="136.23 668.8 136.23 669.89 148.59 676.8 148.59 675.71 136.23 668.8"/><polygon class="cls-143" points="164.9 666.36 164.9 667.45 148.59 676.8 148.59 675.71 164.9 666.36"/><path class="cls-158" d="M155.56,657.48c.44-.29,16.09-8.92,16.09-8.92L184.23,655l-16.3,9.35Z"/><polygon class="cls-141" points="155.56 657.48 155.56 658.57 167.93 665.48 167.93 664.39 155.56 657.48"/><polygon class="cls-143" points="184.23 655.04 184.23 656.13 167.93 665.48 167.93 664.39 184.23 655.04"/><path class="cls-159" d="M174.45,646.37c.44-.29,16.09-8.92,16.09-8.92l12.58,6.47-16.3,9.35Z"/><polygon class="cls-141" points="174.45 646.37 174.45 647.46 186.81 654.37 186.81 653.28 174.45 646.37"/><polygon class="cls-143" points="203.11 643.93 203.11 645.02 186.81 654.37 186.81 653.28 203.11 643.93"/><path class="cls-160" d="M144.6,607.22c.44-.29,16.09-8.92,16.09-8.92l12.58,6.48L157,614.13Z"/><polygon class="cls-141" points="144.6 607.22 144.6 608.31 156.97 615.22 156.97 614.13 144.6 607.22"/><polygon class="cls-143" points="173.27 604.78 173.27 605.87 156.97 615.22 156.97 614.13 173.27 604.78"/><polygon class="cls-161" points="56.86 632.3 38.95 604.69 129.15 553.53 146.86 580.5 56.86 632.3"/><polygon class="cls-162" points="61.94 622.73 52.72 608.2 128.08 563.1 138.39 579.13 61.94 622.73"/><polygon class="cls-163" points="38.95 604.69 38.44 616.11 56.86 642.46 56.86 632.3 38.95 604.69"/><polygon class="cls-164" points="56.86 642.46 146.86 692.03 147.27 683.51 56.86 632.3 56.86 642.46"/><polygon class="cls-165" points="146.86 692.03 237.41 640.55 237.41 632.16 147.27 683.51 146.86 692.03"/><polygon class="cls-166" points="66.52 599.94 66.52 620.31 72.89 616.48 72.89 596.13 66.52 599.94"/></g></g></svg>