<svg id="Layer_1" data-name="Layer 1" xmlns="http://www.w3.org/2000/svg" viewBox="0 0 2042.02 596.53"><defs><style>.cls-1{fill:#b2d8ee;}.cls-2{fill:#26a7e5;}.cls-3{fill:#1568ad;}.cls-4{fill:#fff;}</style></defs><title>logo-2</title><path class="cls-1" d="M596.53,298.27A298.65,298.65,0,0,1,461.89,547.68q-3.55,2.34-7.19,4.57a296,296,0,0,1-54,26.24c-2.2.81-4.41,1.58-6.63,2.34a295.79,295.79,0,0,1-60.53,13.63c-2.32.28-4.64.53-7,.75-9.29.87-18.72,1.32-28.24,1.32q-13.68,0-27.06-1.21h-.08a296.14,296.14,0,0,1-54.35-10.06C91.66,549.8,0,434.74,0,298.27,0,133.54,133.54,0,298.27,0S596.53,133.54,596.53,298.27Z"/><circle class="cls-2" cx="298.86" cy="297.06" r="179.75"/><circle class="cls-3" cx="298.86" cy="297.06" r="93.83"/><path class="cls-4" d="M326.51,307.34V595.21c-9.29.87-18.72,1.32-28.24,1.32q-13.68,0-27.06-1.21v-288Z"/><ellipse class="cls-4" cx="298.86" cy="307.34" rx="27.65" ry="29.05"/><path class="cls-4" d="M394,424.61V580.83a295.79,295.79,0,0,1-60.53,13.63V424.61Z"/><circle class="cls-4" cx="363.76" cy="424.61" r="30.26"/><path class="cls-4" d="M454.7,434.46V552.25a296,296,0,0,1-54,26.24v-144Z"/><circle class="cls-4" cx="427.68" cy="434.46" r="27.02"/><path class="cls-4" d="M507.58,452v58.73a299.85,299.85,0,0,1-45.69,36.94V452Z"/><circle class="cls-4" cx="484.73" cy="452.01" r="22.85"/><path class="cls-4" d="M673.78,168.47h33.34v203H673.78Z"/><path class="cls-4" d="M872.68,282.42v89H841.37V285.61c0-21.75-12.47-33.63-32.47-33.63-22,0-36.82,13.63-36.82,41.75v77.7H740.76v-145h31.31V245c9.57-14.79,24.36-22.33,44.94-22.33C850.35,222.69,872.68,245.31,872.68,282.42Z"/><path class="cls-4" d="M997.36,226.46h34.21L975,371.43H938.79l-56.54-145h34.21l40.59,110.18Z"/><path class="cls-4" d="M1054.77,353.17c-14.79-14.79-22.33-32.76-22.33-54.22s7.54-39.43,22.33-54.22,33.05-22,54.22-22c21.46,0,39.43,7.25,54.22,22s22.33,32.76,22.33,54.22-7.54,39.43-22.33,54.22-32.76,22-54.22,22C1087.82,375.2,1069.56,368,1054.77,353.17Zm54.22-8.41q19.14,0,32.18-13c8.7-8.7,13-19.72,13-32.76s-4.35-24.07-13-32.76-19.43-13-32.18-13-23.48,4.35-32.18,13-13,19.72-13,32.76,4.35,24.06,13,32.76S1096.23,344.76,1109,344.76Z"/><path class="cls-4" d="M1210.47,198.92c-7.83-8.12-7.83-20.3,0-28.12a19.62,19.62,0,0,1,28.41,0c7.83,7.83,7.83,20-.29,28.12C1230.76,206.75,1218.59,206.75,1210.47,198.92ZM1209,371.43v-145h31.31v145Z"/><path class="cls-4" d="M1285.27,353.17c-14.5-14.79-21.75-32.76-21.75-54.22,0-21.75,7.25-39.72,21.75-54.22,14.79-14.79,33.05-22,54.8-22,28.12,0,53.06,14.5,64.66,37.4l-27,15.66c-6.67-13.92-20.59-22.33-38-22.33q-19.14,0-32.18,13c-8.41,8.7-12.76,19.43-12.76,32.47s4.35,23.77,12.76,32.47q13,13,32.18,13c17.11,0,31.6-8.7,38.56-22.33l27,15.37c-12.47,23.2-37.11,37.69-65.24,37.69C1318.32,375.2,1300.06,368,1285.27,353.17Z"/><path class="cls-4" d="M1445.32,312.28c4.64,22,22.33,34.21,46.39,34.21,16.53,0,29-6.09,37.4-18l25.8,15.08c-14.21,21.17-35.37,31.6-63.5,31.6-23.49,0-42.62-7.25-57.12-21.46q-21.75-21.75-21.75-54.8c0-21.75,7.25-39.72,21.46-54.22,14.21-14.79,32.76-22,55.09-22,21.17,0,38.56,7.54,52.19,22.33s20.59,33.05,20.59,54.22a85,85,0,0,1-1.16,13Zm85-25.51c-4.35-23.49-20.88-35.66-41.46-35.66-23.2,0-39.43,13.63-43.78,35.66Z"/><path class="cls-4" d="M1718.44,168.47v31.89h-57.12V371.43H1628V200.37h-57.41V168.47Z"/><path class="cls-4" d="M1824.85,226.46h31.31v145h-31.31V350.56c-11.89,16.53-28.7,24.64-50.74,24.64-20,0-36.82-7.25-51-22s-21.17-33.05-21.17-54.22c0-21.46,7-39.43,21.17-54.22s31-22,51-22c22,0,38.85,8.12,50.74,24.35ZM1779,345.34c13,0,24.07-4.35,32.76-13,8.7-9,13-20,13-33.34s-4.35-24.36-13-33.05c-8.7-9-19.72-13.34-32.76-13.34s-24.06,4.35-32.76,13.34q-13,13-13,33.05c0,13.34,4.35,24.35,13,33.34C1755,341,1766,345.34,1779,345.34Z"/><path class="cls-4" d="M2020.85,245c14.21,14.79,21.17,32.76,21.17,53.93,0,21.46-7,39.43-21.17,54.22s-31,22-51,22c-22,0-38.85-8.12-50.74-24.35v78.57h-31.31v-203h31.31v20.88c11.89-16.53,28.7-24.64,50.74-24.64C1989.83,222.69,2006.64,230.23,2020.85,245Zm-56,100.32c13,0,24.07-4.35,32.76-13,8.7-9,13-20,13-33.34s-4.35-24.36-13-33.05c-8.7-9-19.72-13.34-32.76-13.34s-24.07,4.35-32.76,13.34q-13,13-13,33.05c0,13.34,4.35,24.35,13,33.34C1940.83,341,1951.84,345.34,1964.89,345.34Z"/><path class="cls-4" d="M271.13,564.56v30.75a296.14,296.14,0,0,1-54.35-10.06L198,493.76c48.37-8.85,58.7,28.91,58.7,28.91Z"/></svg>