<svg id="Layer_1" data-name="Layer 1" xmlns="http://www.w3.org/2000/svg" viewBox="0 0 1149.57 247.41"><defs><style>.cls-1{fill:#b2e6fb;}.cls-2{fill:#00adef;}.cls-3{fill:#0068af;}.cls-4{fill:#fff;fill-rule:evenodd;}.cls-5{fill:#303133;}</style></defs><title>logo-4</title><circle class="cls-1" cx="123.7" cy="123.7" r="123.7"/><circle class="cls-2" cx="123.7" cy="123.7" r="74.55"/><circle class="cls-3" cx="123.7" cy="123.7" r="38.91"/><path class="cls-4" d="M88.74,116.18,76,131.9l36.14,33.79c20.35-31.94,46.93-56.91,72.1-67.72-30,7.75-57.9,24.5-72.1,42.08Z"/><path class="cls-5" d="M348.38,66.17H367.9V185H348.38Z"/><path class="cls-5" d="M464.83,132.89V185H446.5V134.75c0-12.73-7.3-19.69-19-19.69-12.9,0-21.56,8-21.56,24.44V185H387.59V100.12h18.33V111c5.6-8.66,14.26-13.07,26.31-13.07C451.76,97.92,464.83,111.16,464.83,132.89Z"/><path class="cls-5" d="M537.83,100.12h20L524.76,185H503.54l-33.1-84.88h20l23.77,64.51Z"/><path class="cls-5" d="M571.44,174.31a43.16,43.16,0,0,1-13.07-31.74,43.16,43.16,0,0,1,13.07-31.74c8.66-8.66,19.35-12.9,31.74-12.9,12.56,0,23.09,4.24,31.74,12.9A43.17,43.17,0,0,1,648,142.56a43.16,43.16,0,0,1-13.07,31.74c-8.66,8.66-19.18,12.9-31.74,12.9C590.79,187.21,580.1,183,571.44,174.31Zm31.74-4.92A25.6,25.6,0,0,0,622,161.74a26.1,26.1,0,0,0,7.64-19.18A26.1,26.1,0,0,0,622,123.38a27.06,27.06,0,0,0-37.69,0,26.1,26.1,0,0,0-7.64,19.18,26.1,26.1,0,0,0,7.64,19.18A25.6,25.6,0,0,0,603.18,169.38Z"/><path class="cls-5" d="M662.6,84a11.7,11.7,0,1,1,16.64-16.47A11.43,11.43,0,0,1,679.06,84,11.58,11.58,0,0,1,662.6,84Zm-.85,101V100.12h18.33V185Z"/><path class="cls-5" d="M706.39,174.31c-8.49-8.66-12.73-19.18-12.73-31.74,0-12.73,4.24-23.26,12.73-31.74,8.66-8.66,19.35-12.9,32.08-12.9,16.47,0,31.06,8.49,37.86,21.9L760.54,129c-3.9-8.15-12.05-13.07-22.24-13.07a25.6,25.6,0,0,0-18.84,7.64,27.93,27.93,0,0,0,0,38,25.6,25.6,0,0,0,18.84,7.64c10,0,18.5-5.09,22.58-13.07l15.79,9c-7.3,13.58-21.73,22.07-38.19,22.07C725.74,187.21,715.05,183,706.39,174.31Z"/><path class="cls-5" d="M800.1,150.37c2.72,12.9,13.07,20,27.16,20,9.68,0,17-3.56,21.9-10.52l15.11,8.83c-8.32,12.39-20.71,18.5-37.18,18.5-13.75,0-25-4.24-33.44-12.56q-12.73-12.73-12.73-32.08c0-12.73,4.24-23.26,12.56-31.74,8.32-8.66,19.18-12.9,32.25-12.9,12.39,0,22.58,4.41,30.56,13.07s12.05,19.35,12.05,31.74a49.76,49.76,0,0,1-.68,7.64Zm49.74-14.94c-2.55-13.75-12.22-20.88-24.27-20.88-13.58,0-23.09,8-25.63,20.88Z"/><path class="cls-5" d="M960.13,66.25V84.93H926.69V185.08H907.17V84.93H873.55V66.25Z"/><path class="cls-5" d="M1022.43,100.2h18.33v84.88h-18.33V172.86c-7,9.68-16.81,14.43-29.71,14.43-11.71,0-21.56-4.24-29.88-12.9S950.45,155,950.45,142.64c0-12.56,4.07-23.09,12.39-31.74S981,98,992.72,98c12.9,0,22.75,4.75,29.71,14.26Zm-26.82,69.6a26.1,26.1,0,0,0,19.18-7.64,26.89,26.89,0,0,0,7.64-19.52q0-11.71-7.64-19.35c-5.09-5.26-11.54-7.81-19.18-7.81s-14.09,2.55-19.18,7.81q-7.64,7.64-7.64,19.35a26.89,26.89,0,0,0,7.64,19.52A26.1,26.1,0,0,0,995.61,169.8Z"/><path class="cls-5" d="M1137.18,111.07c8.32,8.66,12.39,19.18,12.39,31.57,0,12.56-4.07,23.09-12.39,31.74s-18.16,12.9-29.88,12.9c-12.9,0-22.75-4.75-29.71-14.26v46h-18.33V100.2h18.33v12.22c7-9.68,16.81-14.43,29.71-14.43C1119,98,1128.86,102.41,1137.18,111.07Zm-32.76,58.73a26.1,26.1,0,0,0,19.18-7.64,26.89,26.89,0,0,0,7.64-19.52q0-11.71-7.64-19.35c-5.09-5.26-11.54-7.81-19.18-7.81s-14.09,2.55-19.18,7.81q-7.64,7.64-7.64,19.35a26.89,26.89,0,0,0,7.64,19.52A26.1,26.1,0,0,0,1104.42,169.8Z"/></svg>